<svg id="art" xmlns="http://www.w3.org/2000/svg" viewBox="0 0 1920 611.38">
  <g id="head">
    <path d="M318.46,55.67c23.82,0,36.51-51,60.73-51H1920V0H214.84c-24.22,0-36.9,51-60.73,51H0v4.7" style="fill: #ee3423;opacity: 0.6"/>
    <path d="M321,55.67c23.82,0,36.51-51,60.73-51H1920V3H365.34c-24.22,0-34.9,51-58.73,51H0v1.7" style="fill: #ee3423;opacity: 0.8"/>
    <g>
      <path d="M250.15,48a.72.72,0,0,1-.12.42.88.88,0,0,1-.44.28,4.36,4.36,0,0,1-.85.17,13.21,13.21,0,0,1-1.4.06,12.32,12.32,0,0,1-1.35-.06,4.65,4.65,0,0,1-.86-.17,1,1,0,0,1-.46-.28.66.66,0,0,1-.13-.42V40.52h-21V48a.66.66,0,0,1-.14.42,1,1,0,0,1-.46.28,4.61,4.61,0,0,1-.87.17,12.73,12.73,0,0,1-1.37.06,12.52,12.52,0,0,1-1.36-.06,4.61,4.61,0,0,1-.87-.17.87.87,0,0,1-.45-.28.72.72,0,0,1-.12-.42V36.61a1,1,0,0,1,1.17-1.32h1.46q.59-.82,1.11-1.71a15.54,15.54,0,0,0,1-2.08q.48-1.21,1-2.88c.32-1.12.63-2.48.94-4.09s.62-3.52.94-5.73.65-4.8,1-7.78A3.13,3.13,0,0,1,227,9.43a1.54,1.54,0,0,1,1.27-.5h16.14a1.75,1.75,0,0,1,1.34.5,2.07,2.07,0,0,1,.49,1.52V35.29H249a1.07,1.07,0,0,1,.92.36,1.58,1.58,0,0,1,.27,1ZM239.87,14.1H232.5c-.29,2.48-.58,4.65-.87,6.53s-.57,3.53-.85,4.95-.57,2.63-.87,3.66A27.45,27.45,0,0,1,229,31.9a12.89,12.89,0,0,1-.94,1.93,15.5,15.5,0,0,1-1,1.46h12.79Z" style="fill: #fff"/>
      <path d="M278.06,39.66a.68.68,0,0,1-.15.45,1,1,0,0,1-.52.31,5.13,5.13,0,0,1-1,.18c-.42,0-1,.06-1.63.06s-1.27,0-1.7-.06a4.63,4.63,0,0,1-1-.19,1.24,1.24,0,0,1-.58-.37,1.54,1.54,0,0,1-.3-.57l-2.54-7a15.26,15.26,0,0,0-1.12-2.58,6.76,6.76,0,0,0-1.29-1.68,4,4,0,0,0-1.61-.92,7.12,7.12,0,0,0-2-.27h-1.44V39.64a.68.68,0,0,1-.15.45,1.15,1.15,0,0,1-.51.32,4,4,0,0,1-1,.19q-.6.06-1.56.06c-.62,0-1.13,0-1.55-.06a4.24,4.24,0,0,1-1-.19,1.26,1.26,0,0,1-.52-.32.64.64,0,0,1-.16-.45V9.78a.64.64,0,0,1,.16-.45,1.15,1.15,0,0,1,.52-.31,4.92,4.92,0,0,1,1-.18c.42,0,.93-.06,1.55-.06s1.16,0,1.56.06a4.67,4.67,0,0,1,1,.18,1.06,1.06,0,0,1,.51.31.68.68,0,0,1,.15.45V21.65h1.44a5.71,5.71,0,0,0,1.93-.3,4.09,4.09,0,0,0,1.5-.93,6.55,6.55,0,0,0,1.22-1.64,16.2,16.2,0,0,0,1.06-2.51L270.37,10a2.41,2.41,0,0,1,.29-.58,1.15,1.15,0,0,1,.55-.36,4.17,4.17,0,0,1,1-.2c.41,0,1-.06,1.67-.06s1.16,0,1.58.06a5.25,5.25,0,0,1,1,.17.84.84,0,0,1,.48.29.85.85,0,0,1,.12.46,3.15,3.15,0,0,1-.11.78,11.75,11.75,0,0,1-.38,1.22l-2.12,5.61A22.46,22.46,0,0,1,273.25,20,9.94,9.94,0,0,1,272,21.9a6.92,6.92,0,0,1-1.36,1.26,7.48,7.48,0,0,1-1.6.8v0a11.35,11.35,0,0,1,1.77.94,7.35,7.35,0,0,1,1.49,1.33,11.94,11.94,0,0,1,1.33,2,25.61,25.61,0,0,1,1.29,2.88l2.59,6.54A8.77,8.77,0,0,1,278,39,3.38,3.38,0,0,1,278.06,39.66Z" style="fill: #fff"/>
      <path d="M308.53,39.69a.65.65,0,0,1-.16.42,1.11,1.11,0,0,1-.53.31,4.65,4.65,0,0,1-1,.18c-.41,0-.93.06-1.55.06s-1.13,0-1.55-.06a4.43,4.43,0,0,1-1-.18,1,1,0,0,1-.5-.31.64.64,0,0,1-.15-.42V23c0-.64,0-1.26,0-1.87s0-1.15.08-1.62h-.05l-.47.79c-.17.3-.37.62-.57.95s-.42.68-.65,1-.45.68-.68,1l-11,16.38a3.18,3.18,0,0,1-.4.47,1.41,1.41,0,0,1-.54.3,3.81,3.81,0,0,1-.8.15q-.48,0-1.23,0c-.64,0-1.15,0-1.54-.06a4,4,0,0,1-.92-.18.75.75,0,0,1-.57-.78V9.76a.6.6,0,0,1,.16-.43,1.14,1.14,0,0,1,.53-.31,5.2,5.2,0,0,1,1-.18c.41,0,.92-.06,1.54-.06s1.16,0,1.56.06a4.67,4.67,0,0,1,1,.18,1.11,1.11,0,0,1,.51.31.64.64,0,0,1,.15.43V26.5c0,.52,0,1.08,0,1.66s0,1.16-.07,1.71h.05c.28-.49.63-1.07,1.05-1.76s.86-1.35,1.32-2l11-16.38a4,4,0,0,1,.37-.43,1.57,1.57,0,0,1,.53-.3,3.28,3.28,0,0,1,.81-.17c.33,0,.74-.05,1.25-.05a15,15,0,0,1,1.5.06,4.26,4.26,0,0,1,.92.18,1,1,0,0,1,.47.31.73.73,0,0,1,.14.45Z" style="fill: #fff"/>
    </g>
    <path d="M0,0V50.66L154.11,51c23.83,0,36.51-51,60.73-51Z" style="fill: #424242;opacity: 0.8"/>
    <text style="font-size: 16px;fill: #fff;font-family: Calibri, Calibri"><tspan x="9" y="43.33">инфрастуктуры</tspan></text>
    <text style="font-size: 16px;fill: #fff;font-family: Calibri, Calibri"><tspan x="9" y="29.33">комплекс</tspan></text>
    <text transform="translate(9 15.33)" style="font-size: 16px;fill: #fff;font-family: Calibri, Calibri">Диагностический</text>
  </g>
  <g id="sys">
    <path d="M375.17,20.84,355.83,46.67H673.54a13.73,13.73,0,0,0,11-5.51l19.34-25.83H386.17A13.73,13.73,0,0,0,375.17,20.84Z" style="fill: #344878;opacity: 0.7"/>
    <text transform="translate(403.5 38)" style="font-size: 24px;fill: #fff;font-family: Calibri, Calibri">Измеритльные системы</text>
    <path d="M375.14,20.87l-19.31,25.8h10.89a11.43,11.43,0,0,0,9.12-4.57l14.45-19.31a13.83,13.83,0,0,1,11.07-5.54H702.44l1.44-1.92H386.21A13.87,13.87,0,0,0,375.14,20.87Z" style="fill: #1a4da6;opacity: 0.8"/>
  </g>
  <g id="m01">
    <path id="sel_g01" d="M714.79,20.84,695.46,46.67h182.7a13.76,13.76,0,0,0,11-5.51L908.5,15.33H725.8A13.76,13.76,0,0,0,714.79,20.84Z" style="fill: #5b6166;opacity: 0.9"/>
    <text transform="translate(743.13 38)" style="font-size: 24px;fill: #fff;font-family: Calibri, Calibri">Все системы</text>
    <path id="line" d="M714.77,20.87l-19.31,25.8h10.88a11.38,11.38,0,0,0,9.12-4.57l14.46-19.31A13.82,13.82,0,0,1,741,17.25H907.07l1.43-1.92H725.84A13.84,13.84,0,0,0,714.77,20.87Z" style="fill: #1a4da6;opacity: 0.8"/>
    <rect id="sel01" x="695.46" y="15.33" width="213.04" height="31.33" style="fill: #fff;opacity: 0"/>
  </g>
  <g id="m02">
    <path id="sel_g02" d="M714.79,61.18,695.46,87h340.7a13.76,13.76,0,0,0,11-5.51l19.33-25.82H725.8A13.76,13.76,0,0,0,714.79,61.18Z" style="fill: #5b6166;opacity: 0.9"/>
    <text transform="translate(743.13 78.34)" style="font-size: 24px;fill: #fff;font-family: Calibri, Calibri">Система позиционирования</text>
    <path id="line-2" data-name="line" d="M714.77,61.21,695.46,87h10.88a11.39,11.39,0,0,0,9.12-4.56l14.46-19.31A13.82,13.82,0,0,1,741,57.59h324.08l1.43-1.92H725.84A13.82,13.82,0,0,0,714.77,61.21Z" style="fill: #1a4da6;opacity: 0.8"/>
    <rect id="sel02" x="695.46" y="55.67" width="371.04" height="31.33" style="fill: #fff;opacity: 0"/>
  </g>
  <g id="m03">
    <path id="sel_g03" d="M714.79,101.52l-19.33,25.82h583.7a13.76,13.76,0,0,0,11-5.51L1309.5,96H725.8A13.76,13.76,0,0,0,714.79,101.52Z" style="fill: #5b6166;opacity: 0.9"/>
    <text transform="translate(743.13 118.67)" style="font-size: 24px;fill: #fff;font-family: Calibri, Calibri">Система измерения геометрических параметров РК</text>
    <path id="line-3" data-name="line" d="M714.77,101.55l-19.31,25.79h10.88a11.38,11.38,0,0,0,9.12-4.57l14.46-19.31A13.84,13.84,0,0,1,741,97.92h567.08L1309.5,96H725.84A13.82,13.82,0,0,0,714.77,101.55Z" style="fill: #1a4da6;opacity: 0.8"/>
    <rect id="sel03" x="695.46" y="96.01" width="614.04" height="31.33" style="fill: #fff;opacity: 0"/>
  </g>
  <g id="m04">
    <path id="sel_g04" d="M714.79,141.85l-19.33,25.83h492.7a13.76,13.76,0,0,0,11-5.51l19.33-25.83H725.8A13.76,13.76,0,0,0,714.79,141.85Z" style="fill: #5b6166;opacity: 0.9"/>
    <text transform="translate(743.13 159.01)" style="font-size: 24px;fill: #fff;font-family: Calibri, Calibri">Система измерения коротких неровностей</text>
    <path id="line-4" data-name="line" d="M714.77,141.88l-19.31,25.8h10.88a11.38,11.38,0,0,0,9.12-4.57l14.46-19.31A13.82,13.82,0,0,1,741,138.26h476.08l1.43-1.92H725.84A13.84,13.84,0,0,0,714.77,141.88Z" style="fill: #1a4da6;opacity: 0.8"/>
    <rect id="sel04" x="695.46" y="136.34" width="523.04" height="31.33" style="fill: #fff;opacity: 0"/>
  </g>
  <g id="m05">
    <path id="sel_g05" d="M714.79,182.19,695.46,208h704.7a13.76,13.76,0,0,0,11-5.51l19.33-25.82H725.8A13.76,13.76,0,0,0,714.79,182.19Z" style="fill: #5b6166;opacity: 0.9"/>
    <text transform="translate(743.13 199.35)" style="font-size: 24px;fill: #fff;font-family: Calibri, Calibri">Система измерения параметров поперечного профиля рельсов</text>
    <path id="line-5" data-name="line" d="M714.77,182.22,695.46,208h10.88a11.39,11.39,0,0,0,9.12-4.56l14.46-19.31A13.82,13.82,0,0,1,741,178.6h688.08l1.43-1.92H725.84A13.82,13.82,0,0,0,714.77,182.22Z" style="fill: #1a4da6;opacity: 0.8"/>
    <rect id="sel05" x="695.46" y="176.68" width="735.04" height="31.33" style="fill: #fff;opacity: 0"/>
  </g>
  <g id="m06">
    <path id="sel_g06" d="M714.79,222.53l-19.33,25.82h550.7a13.76,13.76,0,0,0,11-5.51L1276.5,217H725.8A13.76,13.76,0,0,0,714.79,222.53Z" style="fill: #5b6166;opacity: 0.9"/>
    <text transform="translate(743.13 239.68)" style="font-size: 24px;fill: #fff;font-family: Calibri, Calibri">Система видео контроля верхнего строения пути</text>
    <path id="line-6" data-name="line" d="M714.77,222.56l-19.31,25.79h10.88a11.38,11.38,0,0,0,9.12-4.57l14.46-19.31A13.84,13.84,0,0,1,741,218.93h534.08l1.43-1.91H725.84A13.82,13.82,0,0,0,714.77,222.56Z" style="fill: #1a4da6;opacity: 0.8"/>
    <rect id="sel06" x="695.46" y="217.02" width="581.04" height="31.33" style="fill: #fff;opacity: 0"/>
  </g>
  <g id="m07">
    <path id="sel_g07" d="M714.79,262.86l-19.33,25.83h579.7a13.76,13.76,0,0,0,11-5.51l19.33-25.83H725.8A13.76,13.76,0,0,0,714.79,262.86Z" style="fill: #5b6166;opacity: 0.9"/>
    <text transform="translate(743.13 280.02)" style="font-size: 24px;fill: #fff;font-family: Calibri, Calibri">Система измерения температуры рельсовых нитей</text>
    <path id="line-7" data-name="line" d="M714.77,262.89l-19.31,25.8h10.88a11.38,11.38,0,0,0,9.12-4.57l14.46-19.31A13.82,13.82,0,0,1,741,259.27h563.08l1.43-1.92H725.84A13.84,13.84,0,0,0,714.77,262.89Z" style="fill: #1a4da6;opacity: 0.8"/>
    <rect id="sel07" x="695.46" y="257.35" width="610.04" height="31.33" style="fill: #fff;opacity: 0"/>
  </g>
  <g id="m08">
    <path id="sel_g08" d="M714.79,303.2,695.46,329h511.7a13.76,13.76,0,0,0,11-5.51l19.33-25.82H725.8A13.76,13.76,0,0,0,714.79,303.2Z" style="fill: #5b6166;opacity: 0.9"/>
    <text transform="translate(743.13 320.36)" style="font-size: 24px;fill: #fff;font-family: Calibri, Calibri">Система неразрушающего контроля рельсов</text>
    <path id="line-8" data-name="line" d="M714.77,303.23,695.46,329h10.88a11.39,11.39,0,0,0,9.12-4.56l14.46-19.31A13.82,13.82,0,0,1,741,299.61h495.08l1.43-1.92H725.84A13.82,13.82,0,0,0,714.77,303.23Z" style="fill: #1a4da6;opacity: 0.8"/>
    <rect id="sel08" x="695.46" y="297.69" width="542.04" height="31.33" style="fill: #fff;opacity: 0"/>
  </g>
  <g id="m09">
    <path id="sel_g09" d="M714.79,343.54l-19.33,25.82h721.7a13.76,13.76,0,0,0,11-5.51L1447.5,338H725.8A13.76,13.76,0,0,0,714.79,343.54Z" style="fill: #5b6166;opacity: 0.9"/>
    <text transform="translate(743.13 360.69)" style="font-size: 24px;fill: #fff;font-family: Calibri, Calibri">Система контроля ускорений действующих на подвижной состав</text>
    <path id="line-9" data-name="line" d="M714.77,343.57l-19.31,25.79h10.88a11.38,11.38,0,0,0,9.12-4.57l14.46-19.31A13.84,13.84,0,0,1,741,339.94h705.08l1.43-1.91H725.84A13.82,13.82,0,0,0,714.77,343.57Z" style="fill: #1a4da6;opacity: 0.8"/>
    <rect id="sel09" x="695.46" y="338.03" width="752.04" height="31.33" style="fill: #fff;opacity: 0"/>
  </g>
  <g id="m10">
    <path id="sel_g10" d="M714.79,383.87,695.46,409.7h492.7a13.76,13.76,0,0,0,11-5.51l19.33-25.83H725.8A13.79,13.79,0,0,0,714.79,383.87Z" style="fill: #5b6166;opacity: 0.9"/>
    <text transform="translate(743.13 401.03)" style="font-size: 24px;fill: #fff;font-family: Calibri, Calibri">Система пространственного сканирования</text>
    <path id="line-10" data-name="line" d="M714.77,383.9l-19.31,25.8h10.88a11.38,11.38,0,0,0,9.12-4.57l14.46-19.31A13.82,13.82,0,0,1,741,380.28h476.08l1.43-1.92H725.84A13.84,13.84,0,0,0,714.77,383.9Z" style="fill: #1a4da6;opacity: 0.8"/>
    <rect id="sel10" x="695.46" y="378.36" width="523.04" height="31.33" style="fill: #fff;opacity: 0"/>
  </g>
  <g id="m11">
    <path id="sel_g11" d="M714.79,424.21,695.46,450h838.7a13.76,13.76,0,0,0,11-5.51l19.33-25.82H725.8A13.76,13.76,0,0,0,714.79,424.21Z" style="fill: #5b6166;opacity: 0.9"/>
    <text transform="translate(743.13 441.37)" style="font-size: 24px;fill: #fff;font-family: Calibri, Calibri">Система видеонаблюдения состояния обустройства железнодорожного пути</text>
    <path id="line-11" data-name="line" d="M714.77,424.24,695.46,450h10.88a11.39,11.39,0,0,0,9.12-4.56l14.46-19.31A13.82,13.82,0,0,1,741,420.62h822.08l1.43-1.92H725.84A13.82,13.82,0,0,0,714.77,424.24Z" style="fill: #1a4da6;opacity: 0.8"/>
    <rect id="sel11" x="695.46" y="418.7" width="869.04" height="31.33" style="fill: #fff;opacity: 0"/>
  </g>
  <g id="m12">
    <path id="sel_g12" d="M714.79,464.55l-19.33,25.82h553.7a13.76,13.76,0,0,0,11-5.51L1279.5,459H725.8A13.76,13.76,0,0,0,714.79,464.55Z" style="fill: #5b6166;opacity: 0.9"/>
    <text transform="translate(743.13 481.7)" style="font-size: 24px;fill: #fff;font-family: Calibri, Calibri">Система измерения параметров контактной сети</text>
    <path id="line-12" data-name="line" d="M714.77,464.58l-19.31,25.79h10.88a11.39,11.39,0,0,0,9.12-4.56l14.46-19.32A13.84,13.84,0,0,1,741,461h537.08l1.43-1.91H725.84A13.82,13.82,0,0,0,714.77,464.58Z" style="fill: #1a4da6;opacity: 0.8"/>
    <rect id="sel12" x="695.46" y="459.04" width="584.04" height="31.33" style="fill: #fff;opacity: 0"/>
  </g>
  <g id="m13">
    <path id="sel_g13" d="M714.79,504.88l-19.33,25.83h431.7a13.76,13.76,0,0,0,11-5.51l19.33-25.83H725.8A13.79,13.79,0,0,0,714.79,504.88Z" style="fill: #5b6166;opacity: 0.9"/>
    <text transform="translate(743.13 522.04)" style="font-size: 24px;fill: #fff;font-family: Calibri, Calibri">Система контроля параметров связи</text>
    <path id="line-13" data-name="line" d="M714.77,504.91l-19.31,25.8h10.88a11.38,11.38,0,0,0,9.12-4.57l14.46-19.31A13.82,13.82,0,0,1,741,501.29h415.08l1.43-1.92H725.84A13.84,13.84,0,0,0,714.77,504.91Z" style="fill: #1a4da6;opacity: 0.8"/>
    <rect id="sel13" x="695.46" y="499.37" width="462.04" height="31.33" style="fill: #fff;opacity: 0"/>
  </g>
  <g id="m14">
    <path id="sel_g14" d="M714.79,545.22,695.46,571h734.7a13.76,13.76,0,0,0,11-5.51l19.33-25.82H725.8A13.76,13.76,0,0,0,714.79,545.22Z" style="fill: #5b6166;opacity: 0.9"/>
    <text transform="translate(743.13 562.38)" style="font-size: 24px;fill: #fff;font-family: Calibri, Calibri">Система контроля железнодорожной автоматики и телемеханики</text>
    <path id="line-14" data-name="line" d="M714.77,545.25,695.46,571h10.88a11.39,11.39,0,0,0,9.12-4.56l14.46-19.31A13.82,13.82,0,0,1,741,541.63h718.08l1.43-1.92H725.84A13.82,13.82,0,0,0,714.77,545.25Z" style="fill: #1a4da6;opacity: 0.8"/>
    <rect id="sel14" x="695.46" y="539.71" width="765.04" height="31.33" style="fill: #fff;opacity: 0"/>
  </g>
  <g id="m15">
    <path id="sel_g15" d="M714.79,585.56l-19.33,25.82h737.7a13.76,13.76,0,0,0,11-5.51l19.33-25.82H725.8A13.76,13.76,0,0,0,714.79,585.56Z" style="fill: #5b6166;opacity: 0.9"/>
    <text transform="translate(743.13 602.71)" style="font-size: 24px;fill: #fff;font-family: Calibri, Calibri">Система контроля железнодорожной автоматики и телемеханики</text>
    <path id="line-15" data-name="line" d="M714.77,585.59l-19.31,25.79h10.88a11.39,11.39,0,0,0,9.12-4.56l14.46-19.32A13.84,13.84,0,0,1,741,582h721.08l1.43-1.91H725.84A13.82,13.82,0,0,0,714.77,585.59Z" style="fill: #1a4da6;opacity: 0.8"/>
    <rect id="sel15" x="695.46" y="580.05" width="768.04" height="31.33" style="fill: #fff;opacity: 0"/>
  </g>
</svg>
