<svg id="Layer_1" data-name="Layer 1" xmlns="http://www.w3.org/2000/svg" viewBox="0 0 503.52 555.21"><title>tiger</title><path d="M77.7,284.29s.1,1.89-.73,1.87-17.27-48.09-37.8-45.85C39.17,240.31,57,233,77.7,284.29Z" transform="translate(-16 -10.92)" style="fill:#fff;stroke:#000;stroke-width:0.1720000058412552px"/><path d="M81.23,281.26s-.55,1.82-1.32,1.52S80,231.67,60,226.8C60,226.8,79.18,225.94,81.23,281.26Z" transform="translate(-16 -10.92)" style="fill:#fff;stroke:#000;stroke-width:0.1720000058412552px"/><path d="M108.72,323.59s1.63,1,1.16,1.64-49.64-12.13-59.1,6.23C50.78,331.46,54.46,312.57,108.72,323.59Z" transform="translate(-16 -10.92)" style="fill:#fff;stroke:#000;stroke-width:0.1720000058412552px"/><path d="M105.91,333.8s1.85.4,1.62,1.19-50.94,4.13-54.13,24.53C53.4,359.52,51,340.44,105.91,333.8Z" transform="translate(-16 -10.92)" style="fill:#fff;stroke:#000;stroke-width:0.1720000058412552px"/><path d="M101.7,328.28s1.77.66,1.43,1.41-51-3.34-57.13,16.37C46,346.06,46.35,326.82,101.7,328.28Z" transform="translate(-16 -10.92)" style="fill:#fff;stroke:#000;stroke-width:0.1720000058412552px"/><path d="M91,310.07s1.31,1.38.67,1.9-44.38-25.34-58.53-10.29C33.13,301.68,41.87,284.53,91,310.07Z" transform="translate(-16 -10.92)" style="fill:#fff;stroke:#000;stroke-width:0.1720000058412552px"/><path d="M83.45,314.26s1.45,1.22.88,1.81-47-20.15-59.32-3.6C25,312.47,31.75,294.45,83.45,314.26Z" transform="translate(-16 -10.92)" style="fill:#fff;stroke:#000;stroke-width:0.1720000058412552px"/><path d="M80.85,318.33s1.6,1,1.11,1.68-49.27-13.56-59.25,4.51C22.71,324.52,26.93,305.75,80.85,318.33Z" transform="translate(-16 -10.92)" style="fill:#fff;stroke:#000;stroke-width:0.1720000058412552px"/><path d="M91.58,319s1.12,1.53.42,2S51.23,290.1,35.27,303.21C35.27,303.21,46.14,287.33,91.58,319Z" transform="translate(-16 -10.92)" style="fill:#fff;stroke:#000;stroke-width:0.1720000058412552px"/><path d="M71.8,290s.6,1.8-.2,2S42.2,250.2,23,257.8C23,257.8,38.2,246,71.8,290Z" transform="translate(-16 -10.92)" style="fill:#fff;stroke:#000;stroke-width:0.1720000058412552px"/><path d="M72.5,297s1,1.63.23,2S35,264.5,17.9,276.06C17.9,276.06,30.2,261.26,72.5,297Z" transform="translate(-16 -10.92)" style="fill:#fff;stroke:#000;stroke-width:0.1720000058412552px"/><path d="M72.38,301.35s1.12,1.53.42,2S32,272.5,16.07,285.61C16.07,285.61,26.94,269.73,72.38,301.35Z" transform="translate(-16 -10.92)" style="fill:#fff;stroke:#000;stroke-width:0.1720000058412552px"/><path d="M70.17,303.07c.5,6,1.49,12.61,3.23,15.73,0,0-3.6,12.4,5.2,25.6,0,0-.4,7.2,1.2,10.4,0,0,4,8.4,8.8,9.2,3.88.65,12.61,3.72,22.47,5.12,0,0,17.13,14.08,13.93,26.88,0,0-.4,16.4-4,18,0,0,11.6-11.2,2,5.6l-4.4,18.8s25.6-21.6,10-3.2l-10,26s19.6-18.4,12.4-10l-3.2,8.8s43.2-27.2,12.4,2.4c0,0,8-3.6,12.4-.8,0,0,6.8-1.2,6,.4,0,0-20.8,10.4-24.4,28.8,0,0,8.4-10,5.2.8l.4,11.6s4-21.6,3.6,16c0,0,19.2-18,7.6,2.8v16.8s15.2-16.4,8.8-3.6c0,0,10-8.8,6,6.4,0,0-.8,10.4,3.6-.8,0,0,16-30.6,10-4.4,0,0-.8,19.2,4,4.4a25.47,25.47,0,0,0,9.6,17.6s-1.2-50.8,11.6-14.8l4,16.4s2.8-9.2,2.4-14.4c0,0,14.8-16.4,8,8,0,0,15.2-22.8,12-9.6,0,0-7.6,16-6,20.8,0,0,16.8-34.8,18-36.4,0,0-2,42.4,8.8,6.4,0,0,5.6,12,2.8,16.4,0,0,8-8,7.2-11.2,0,0,4.6-8.2,7.4,5.4,0,0,1.8,9.4,3.4,6.2,0,0,4,24,5.2,1.2,0,0,1.6-13.6-5.6-25.2,0,0,.8-3.2-2-7.2,0,0,13.6,21.6,6.4-7.2,0,0,11.2,8,12.4,8,0,0-13.6-23.2-4.8-18.4,0,0-5.2-10.4,12.8,1.6,0,0-16-16,1.6-6.4,0,0,8,6.4.4-3.6,0,0-14.4-16,7.6,2,0,0,11.6,16.4,12.4,19.2,0,0-10-29.2-14.4-32,0,0,8.4-36.4,49.6-20.8,0,0,6.8,17.2,11.2-1.2,0,0,12.8-6.4,24,21.2,0,0,4-13.6,3.2-16.4,0,0,6.8,1.2,6,0,0,0,13.2,4.4,14.4,3.6,0,0,6.8,6.8,7.2,3.2,0,0,9.2,2.8,7.2-.8,0,0,8.8,15.6,9.2,19.2l2.4-14,2,2.8s1.6-7.6.8-8.8,20,6.8,24.8,27.6l2,8.4s6-14.8,4.4-18.8c0,0,5.2.8,5.6,5.2,0,0,4-23.2-.8-29.2,0,0,4.4-.8,5.6,2.8v-7.2s7.2.8,7.2-1.6c0,0,4.4-4,6.4.8,0,0-12.4-35.2,6-16,0,0,7.2,10.8,3.6-8s-7.6-20.4-2.8-20.8c0,0,.8-3.6-1.2-5.2s1.2,0,1.2,0,4.8,4-.4-18c0,0,6.4,1.6-5.6-27.6,0,0,2.8-2.4-1.2-10.8,0,0,8,4.4,10.8,2.8,0,0-.4-1.6-3.6-5.6,0,0-21.6-54.8-1.2-32.8,0,0,11.85,13.55,5.45-9.25,0,0-9.11-24-8.33-28.31Z" transform="translate(-16 -10.92)" style="fill:#fff;stroke:#000"/><path d="M499.72,280.25a10,10,0,0,1,4.08,2.95s6.8,10.8,1.6-7.6c0,0-9.2-28.8-.4-17.6,0,0,6,7.2,2.8-6.4-3.86-16.43-6.4-22.8-6.4-22.8s11.6,4.8-15.2-34.8l8.8,3.6s-19.6-39.6-41.2-44.8l-8-6s38.4-38,25.6-74.8c0,0-6.8-5.2-16.4,4,0,0-6.4,4.8-12.4,3.2,0,0-30.8,1.2-32.8,1.2S373,43.2,307.4,60.8c0,0-5.2,2-9.6.8,0,0-18.4-16-67.2,6.8,0,0-10,2-11.6,2s-4.4,0-12.4,6.4-8.4,7.2-10.4,8.8c0,0-16.4,11.2-21.2,12,0,0-11.6,6.4-16,16.4l-3.6,1.2s-1.6,7.2-2,8.4c0,0-4.8,3.6-5.6,9.2,0,0-8.8,6-8.4,10.4a90.17,90.17,0,0,0-2.4,10s-7.2,4.8-6.4,7.6c0,0-7.6,14-6.4,20.8,0,0-6.4-.4-9.2,2,0,0-.8,4.8-2.4,5.2,0,0-2.8,1.2-.4,5.2a24.54,24.54,0,0,0-2,4.4s.8,2.8-3.6,8.4c0,0-6.4,18.8-4.4,24,0,0,.4,4.8-2.4,6.4,0,0-3.6-.4,4.8,11.6,0,0,.8,1.2-2.4,3.6,0,0-17.2,3.6-19.6,20,0,0-13.6,14.8-13.6,20a69.43,69.43,0,0,0,1,10.06s-.57,8.34,27,9.14S499.72,280.25,499.72,280.25Z" transform="translate(-16 -10.92)" style="fill:#cc7226;stroke:#000"/><path d="M84.4,302.6c-25-39.4-10.6,17-10.6,17,8.8,34.4,138.4-3.2,138.4-3.2S381,286,392.2,282s106.4,2.4,106.4,2.4L493,267.6c-64.8-46.4-84-23.2-97.6-27.2s-11.2,5.6-14.4,6.4-42.4-24-48.8-23.2-31.74-22.95-16.8,8.8c16,34-58.4,39.2-75.2,28s7.2,18.4,7.2,18.4c18.4,20-16,3.2-16,3.2-34.4-12.8-58.4,12.8-61.6,13.6s-8,4-8.8-2.4-8.31-23.1-40,3.2C101,313,87.2,291,87.2,291Z" transform="translate(-16 -10.92)" style="fill:#cc7226"/><path d="M333.51,225.35c-6.4.8-31.77-22.94-16.8,8.8,16.6,35.2-58.4,39.2-75.2,28s7.2,18.4,7.2,18.4c18.4,20-16,3.2-16,3.2-34.4-12.8-58.4,12.8-61.6,13.6s-8,4-8.8-2.4-8.18-22.94-40,3.2C101.07,315.49,87.58,294,87.58,294l-3.2,10.11c-25-39.8-9.93,18.5-9.93,18.5,8.8,34.41,139.06-4.5,139.06-4.5s168.8-30.4,180-34.4S499,286.07,499,286.07l-5.53-17.31c-64.8-46.4-83.2-22.61-96.8-26.61s-11.2,5.6-14.4,6.4S339.91,224.55,333.51,225.35Z" transform="translate(-16 -10.92)" style="fill:#e87f3a"/><path d="M334.82,227.09c-6.4.8-31.14-23.23-16.8,8.8,16.2,36.2-58.4,39.2-75.2,28s7.2,18.4,7.2,18.4c18.4,20-16,3.2-16,3.2-34.4-12.8-58.4,12.8-61.6,13.6s-8,4-8.8-2.4-8.05-22.76-40,3.2C101.14,318,88,297.07,88,297.07l-3.6,8.62c-23.8-39-9.25,20-9.25,20,8.8,34.4,139.71-5.82,139.71-5.82s168.8-30.4,180-34.4,104.65,2.26,104.65,2.26L494,269.93c-64.8-46.4-82.4-22-96-26s-11.2,5.6-14.4,6.4S341.22,226.29,334.82,227.09Z" transform="translate(-16 -10.92)" style="fill:#ea8c4d"/><path d="M336.13,228.84c-6.4.8-31.13-23.23-16.8,8.8,16.8,37.55-58.94,38.84-75.2,28-16.8-11.2,7.2,18.4,7.2,18.4,18.4,20-16,3.2-16,3.2-34.4-12.8-58.4,12.8-61.6,13.6s-8,4-8.8-2.4-7.92-22.6-40,3.2c-23.71,18.83-36.58-1.53-36.58-1.53l-4,7.13c-21.81-36.8-8.59,21.52-8.59,21.52,8.8,34.4,140.37-7.12,140.37-7.12s168.8-30.4,180-34.4,103.78,2.18,103.78,2.18l-5.38-18.33c-64.8-46.4-81.6-21.45-95.2-25.45s-11.2,5.6-14.4,6.4S342.53,228,336.13,228.84Z" transform="translate(-16 -10.92)" style="fill:#ec9961"/><path d="M337.44,230.58c-6.4.8-30.63-23.45-16.8,8.8,16.8,39.2-58.4,39.2-75.2,28s7.2,18.4,7.2,18.4c18.4,20-16,3.2-16,3.2-34.4-12.8-58.4,12.8-61.6,13.6s-8,4-8.8-2.4-7.79-22.43-40,3.2c-24.95,19.58-37.51-.23-37.51-.23l-4.4,5.63c-19.8-34.8-7.91,23-7.91,23,8.8,34.4,141-8.44,141-8.44s168.8-30.4,180-34.4,102.91,2.11,102.91,2.11L495,272.25c-64.8-46.4-80.8-20.87-94.4-24.87s-11.2,5.6-14.4,6.4S343.84,229.78,337.44,230.58Z" transform="translate(-16 -10.92)" style="fill:#eea575"/><path d="M338.75,232.33c-6.4.8-32.37-22.65-16.8,8.8,19.2,38.8-58.4,39.2-75.2,28s7.2,18.4,7.2,18.4c18.4,20-16,3.2-16,3.2-34.4-12.8-58.4,12.8-61.6,13.6s-8,4-8.8-2.4-7.66-22.26-40,3.2c-26.19,20.33-38.44,1.05-38.44,1.05l-4.8,4.15c-18-33.2-7.24,24.54-7.24,24.54,8.8,34.4,141.68-9.74,141.68-9.74s168.8-30.4,180-34.4,102,2,102,2l-5.23-19.34c-64.8-46.4-80-20.29-93.6-24.29s-11.2,5.6-14.4,6.4S345.15,231.53,338.75,232.33Z" transform="translate(-16 -10.92)" style="fill:#f1b288"/><path d="M340.06,234.07c-6.41.8-32.75-22.46-16.81,8.8,20.41,40-58.39,39.2-75.19,28s7.2,18.4,7.2,18.4c18.39,20-16,3.2-16,3.2-34.4-12.8-58.41,12.8-61.6,13.6s-8,4-8.81-2.4-7.52-22.09-40,3.2c-27.42,21.08-39.37,2.35-39.37,2.35l-5.2,2.65c-16-30.2-6.56,26.06-6.56,26.06,8.8,34.4,142.33-11.06,142.33-11.06s168.8-30.4,180-34.4,101.16,2,101.16,2l-5.16-19.86c-64.8-46.4-79.2-19.71-92.8-23.71s-11.2,5.6-14.4,6.4S346.46,233.27,340.06,234.07Z" transform="translate(-16 -10.92)" style="fill:#f3bf9c"/><path d="M341.37,235.82c-6.41.8-33.85-21.88-16.8,8.8,22,39.6-58.41,39.2-75.21,28s7.2,18.4,7.2,18.4c18.4,20-16,3.2-16,3.2-34.4-12.8-58.4,12.8-61.6,13.6s-8,4-8.8-2.4-7.39-21.93-40,3.2c-28.65,21.82-40.29,3.64-40.29,3.64l-5.6,1.16C69.87,285,78.38,341,78.38,341c8.8,34.4,143-12.36,143-12.36s168.8-30.4,180-34.4,100.29,1.89,100.29,1.89l-5.09-20.36c-64.81-46.4-78.41-19.13-92-23.13s-11.2,5.6-14.41,6.4S347.76,235,341.37,235.82Z" transform="translate(-16 -10.92)" style="fill:#f5ccb0"/><path d="M342.67,237.56c-6.4.81-33.84-21.87-16.8,8.81,22,39.59-58.4,39.2-75.2,28s7.2,18.4,7.2,18.4c18.4,20-16,3.2-16,3.2-34.4-12.79-58.4,12.8-61.6,13.61s-8,4-8.8-2.4-7.26-21.77-40,3.19c-29.89,22.57-41.22,4.93-41.22,4.93l-6-.33C70.65,288.56,79,344,79,344c8.8,34.4,143.63-13.67,143.63-13.67S391.47,300,402.67,296s99.42,1.82,99.42,1.82l-5-20.87c-64.81-46.4-77.61-18.54-91.21-22.54s-11.2,5.6-14.4,6.39S349.07,236.76,342.67,237.56Z" transform="translate(-16 -10.92)" style="fill:#f8d8c4"/><path d="M344,239.31c-6.4.8-33.45-22.09-16.8,8.8,22,40.8-58.4,39.2-75.2,28s7.2,18.4,7.2,18.4c18.4,20-16,3.2-16,3.2-34.4-12.8-58.4,12.8-61.6,13.6s-8,4-8.8-2.4-7.13-21.59-40,3.2c-31.13,23.31-42.14,6.22-42.14,6.22l-6.4-1.82c-13-24-4.55,30.58-4.55,30.58,8.8,34.4,144.29-15,144.29-15s168.8-30.4,180-34.4,98.55,1.75,98.55,1.75l-4.95-21.39c-64.8-46.4-76.8-18-90.4-22s-11.2,5.6-14.4,6.4S350.38,238.51,344,239.31Z" transform="translate(-16 -10.92)" style="fill:#fae5d7"/><path d="M345.29,241.06c-6.4.79-32.37-22.65-16.8,8.79,21.2,42.81-58.4,39.21-75.2,28s7.2,18.4,7.2,18.4c18.4,20-16,3.2-16,3.2-34.4-12.8-58.4,12.8-61.6,13.6s-8,4-8.8-2.4-7-21.43-40,3.2c-32.36,24.05-43.07,7.5-43.07,7.5l-6.8-3.3c-12.8-23.2-3.87,32.09-3.87,32.09,8.8,34.4,144.94-16.29,144.94-16.29s168.8-30.4,180-34.4S503,301.13,503,301.13l-4.87-21.89c-64.8-46.4-76-17.38-89.6-21.38s-11.2,5.6-14.4,6.4S351.69,240.26,345.29,241.06Z" transform="translate(-16 -10.92)" style="fill:#fcf2eb"/><path d="M84.2,319.6c-12.8-22-3.2,33.6-3.2,33.6,8.8,34.4,145.6-17.6,145.6-17.6s168.8-30.4,180-34.4,96.8,1.6,96.8,1.6l-4.8-22.4c-64.8-46.4-75.2-16.8-88.8-20.8s-11.2,5.6-14.4,6.4-42.4-24-48.8-23.2-31.62-23-16.8,8.8c22.23,47.71-60.76,37.63-75.2,28-16.8-11.2,7.2,18.4,7.2,18.4,18.4,20-16,3.2-16,3.2-34.4-12.8-58.4,12.8-61.6,13.6s-8,4-8.8-2.4-6.87-21.26-40,3.2c-33.6,24.8-44,8.8-44,8.8Z" transform="translate(-16 -10.92)" style="fill:#fff"/><path d="M125.8,349.6s-7.2,11.6,13.6,24.8c0,0,1.4,1.4-16.6-2.8,0,0-6.2-2-7.8-12.4a129.79,129.79,0,0,1-9.6-10C100.6,343.6,125.8,349.6,125.8,349.6Z" transform="translate(-16 -10.92)"/><path d="M265.8,302s17.7,26.82,17.1,31.6c-1.3,10.4-1.5,20,1.7,24s12,37.2,12,37.2-.4,1.2,12-36.8c0,0,11.6-16-8.4-34.4C300.2,323.6,265,294.8,265.8,302Z" transform="translate(-16 -10.92)" style="fill:#ccc"/><path d="M145.8,376.4s11.2,7.2-3.2,38.4l6.4-2.4s-.8,11.2-4,13.6l7.2-3.2s4.8,8,.8,12.8c0,0,16.8,8,16,14.4,0,0,6.4-8,2.4-14.4s-11.2-2.4-10.4-20.8l-8.8,3.2s5.6-8.8,5.6-15.2l-8,2.4s15.47-26.58,4.8-28A75.7,75.7,0,0,0,145.8,376.4Z" transform="translate(-16 -10.92)"/><path d="M178.2,393.2s2.8-4.4,0-3.6-34,15.6-40,25.2C138.2,414.8,172.6,390.4,178.2,393.2Z" transform="translate(-16 -10.92)" style="fill:#ccc"/><path d="M188.6,401.2s2.8-4.4,0-3.6-34,15.6-40,25.2C148.6,422.8,183,398.4,188.6,401.2Z" transform="translate(-16 -10.92)" style="fill:#ccc"/><path d="M201.8,386s2.8-4.4,0-3.6-34,15.6-40,25.2C161.8,407.6,196.2,383.2,201.8,386Z" transform="translate(-16 -10.92)" style="fill:#ccc"/><path d="M178.6,429.6s0-6-2.8-5.2-38.8,18.4-44.8,28C131,452.4,173,426.8,178.6,429.6Z" transform="translate(-16 -10.92)" style="fill:#ccc"/><path d="M179.8,418.8s1.2-4.8-1.6-4c-2,0-28.4,11.6-34.4,21.2C143.8,436,173.4,414.4,179.8,418.8Z" transform="translate(-16 -10.92)" style="fill:#ccc"/><path d="M165.4,466.4l-10,7.6s10.4-7.6,14-6.4c0,0-6.8,11.2-7.6,16.4,0,0,10.4-12.8,16-12.4,0,0,7.6.4,7.6,11.2,0,0,5.6-10.4,8.8-10a41.48,41.48,0,0,1,0,13.2s4-7.6,8-6c0,0,6.4-2,5.6,9.6,0,0,0,10.4-.8,13.2,0,0,5.6-26.4,8-26.8,0,0,8-1.2,12.8,7.6,0,0-4-7.6.8-5.6,0,0,10.8,1.6,14,8.4,0,0-6.8-12-1.2-8.8,0,0,6.8,0,8,6.4,0,0,8.4,21.2,10.4,22.8,0,0-7.6-21.6-6-21.6,0,0-2-12,3.2,2.8,0,0-3.2-14,2.4-13.2s10,10.8,18.4,8.4c0,0,9.6,5.6,11.6-63.6Z" transform="translate(-16 -10.92)" style="fill:#ccc"/><path d="M170.2,373.6s14.8-6,54.8,0c0,0,7.2.4,14-8.4s33.6-16,40-14l9.6,6.4.8,1.2s12.4,10.4,12.8,18-14.4,55.6-24,71.6-19.2,28.4-38.4,26a149.75,149.75,0,0,0-46.4,0s-29.2-1.6-32-9.6,11.2-23.2,11.2-23.2,4.4-8.4,3.2-22.8S175,376.4,170.2,373.6Z" transform="translate(-16 -10.92)"/><path d="M192.2,375.6c8.4,18.4-21.2,83.6-21.2,83.6-2,1.6,12.66,7.65,22.8,5.2,10.95-2.64,51.2,1.6,51.2,1.6,23.6-15.6,36.4-60,36.4-60s10.4-24-7.2-27.2S192.2,375.6,192.2,375.6Z" transform="translate(-16 -10.92)" style="fill:#e5668c"/><path d="M190.17,406.5c3.32-12.79,4.91-24.59,2-30.9,0,0,62.4,6.4,73.6-14.4,4.24-7.87,19,22.8,18.6,32.4,0,0-63,14.4-77.8,3.2Z" transform="translate(-16 -10.92)" style="fill:#b23259"/><path d="M194.6,422.8s2,7.2-.4,11.2a26.64,26.64,0,0,1-2.8,1.2s1.2,3.6,7.2,5.2c0,0,2,4.4,4.4,4.8s7.2,6,11.2,4.8,15.2-5.2,15.2-5.2,5.6-3.2,14.4.4c0,0,2.37-.8,2.8-4.8.5-4.7,3.6-8.4,5.6-10.4s11.6-14.8,10.4-15.2S194.6,422.8,194.6,422.8Z" transform="translate(-16 -10.92)" style="fill:#a5264c"/><path d="M190.2,374.4s-2.8,22.4.4,30.8,2.4,10.4,1.6,14.4,3.6,14,9.2,20l12,1.6s15.2-3.6,24.4-.8c0,0,9,1.34,12.4-13.6,0,0,4.8-6.4,12-9.2s14.4-44.4,10.4-52.4-18.4-12.4-34.4,3.2S220.2,367.2,190.2,374.4Z" transform="translate(-16 -10.92)" style="fill:#ff727f;stroke:#000"/><path d="M191.8,449.2s-.8-2-5.2-2.4c0,0-22.4-3.6-30.8-16,0,0-6.8-5.6-2.4,6,0,0,10.4,20.4,17.2,23.2C170.6,460,187,464,191.8,449.2Z" transform="translate(-16 -10.92)" style="fill:#ffc;stroke:#000;stroke-width:0.5px"/><path d="M271.74,385.23c.66-7.91,2.61-16.52.86-20-6.45-12.89-23.42-7.5-34.4,3.2-16,15.6-18-1.2-48,6,0,0-1.75,14-.9,24,0,0,37.3-11.58,38.1-6,0,0,1.6-3.2,10.8-3.2S270.14,388,271.74,385.23Z" transform="translate(-16 -10.92)" style="fill:#cc3f4c"/><path d="M228.6,375.2s4.8,4.8,1.2,14.4c0,0-14.4,16-12.4,30" transform="translate(-16 -10.92)" style="fill:none;stroke:#a51926;stroke-width:2px"/><path d="M180.6,460s-4.4-12.8,4.4-6c0,0,4.8,2,3.6,3.6S181.8,463.2,180.6,460Z" transform="translate(-16 -10.92)" style="fill:#ffc;stroke:#000;stroke-width:0.5px"/><path d="M185.64,461.2s-3.52-10.24,3.52-4.8c0,0,4.42,2.45,2.88,2.88C187.48,460.56,192,463.12,185.64,461.2Z" transform="translate(-16 -10.92)" style="fill:#ffc;stroke:#000;stroke-width:0.5px"/><path d="M190.44,461.2S186.92,451,194,456.4c0,0,4.38,2.31,2.88,2.88C193.48,460.56,196.84,463.12,190.44,461.2Z" transform="translate(-16 -10.92)" style="fill:#ffc;stroke:#000;stroke-width:0.5px"/><path d="M197,461.4s-3.52-10.24,3.52-4.8c0,0,4.38,2.33,2.88,2.88C200.48,460.56,203.44,463.32,197,461.4Z" transform="translate(-16 -10.92)" style="fill:#ffc;stroke:#000;stroke-width:0.5px"/><path d="M203.52,461.32s-3.52-10.24,3.52-4.8c0,0,3.84,1.6,2.88,2.88S209.92,463.24,203.52,461.32Z" transform="translate(-16 -10.92)" style="fill:#ffc;stroke:#000;stroke-width:0.5px"/><path d="M210.2,462s-4.8-12.4,4.4-6c0,0,4.8,2,3.6,3.6S218.2,464.4,210.2,462Z" transform="translate(-16 -10.92)" style="fill:#ffc;stroke:#000;stroke-width:0.5px"/><path d="M181.8,444.8s13.2-2.8,19.2.4c0,0,6,1.2,7.2.8a35.66,35.66,0,0,1,4.4-.8" transform="translate(-16 -10.92)" style="fill:none;stroke:#a5264c;stroke-width:2px"/><path d="M215.8,453.6s12-13.6,24-9.2c7,2.57,6-.8,6.8-3.6s1-7,6-10" transform="translate(-16 -10.92)" style="fill:none;stroke:#a5264c;stroke-width:2px"/><path d="M233,437.6s-4-10.8-6.8,2-6,16.4-7.6,19.2c0,0,0,5.2,8.4,4.8,0,0,10.8-.4,11.2-3.2S237,446,233,437.6Z" transform="translate(-16 -10.92)" style="fill:#ffc;stroke:#000;stroke-width:0.5px"/><path d="M247,444.8s3.6-2.4,6-1.2" transform="translate(-16 -10.92)" style="fill:none;stroke:#a5264c;stroke-width:2px"/><path d="M253.5,428.4s2.9-4.9,7.7-5.7" transform="translate(-16 -10.92)" style="fill:none;stroke:#a5264c;stroke-width:2px"/><path d="M174.2,465.2s18,3.2,22.4,1.6c0,0,8.8,0,.4,2,0,0-12.8,0-20.8-1.2C176.2,467.6,164.6,462,174.2,465.2Z" transform="translate(-16 -10.92)" style="fill:#b2b2b2"/><path d="M188.2,372s17.6,0,19.6.8c0,0,7.2,30.8,3.6,38.4,0,0-1.2,2.8-4-2.8,0,0-18.4-32.8-21.6-34.8S187,372,188.2,372Z" transform="translate(-16 -10.92)" style="fill:#ffc;stroke:#000;stroke-width:0.5px"/><path d="M111.1,369.3s8.9,1.7,21.5,4.3c0,0,4.8,22.4,8,27.2s-.4,4.8-4,2-18.4-16.8-20.4-21.2S111.1,369.3,111.1,369.3Z" transform="translate(-16 -10.92)" style="fill:#ffc;stroke:#000;stroke-width:0.5px"/><path d="M133,373.82s5.8,1.55,6.81,3.76-1.2,5.51-1.2,5.51-1,3.31-2.2,1.15S132.29,374.41,133,373.82Z" transform="translate(-16 -10.92)" style="fill:#ffc;stroke:#000;stroke-width:0.5px"/><path d="M133,373.6s3.6,5.2,7.2,5.2,4-.41,6.8.2c4.6,1,4.2-1,10.8.2,2.64.48,5.2-.4,8,.8s6,.4,7.2-1.6,6-6.2,6-6.2-12.8,1.8-15.6,2.6C163.4,374.8,141,376,133,373.6Z" transform="translate(-16 -10.92)"/><path d="M177.6,373.8s-6.45,3.5-6.85,5.9,5.25,6.1,5.25,6.1,2.75,4.6,3.35,2.2S178.4,374.2,177.6,373.8Z" transform="translate(-16 -10.92)" style="fill:#ffc;stroke:#000;stroke-width:0.5px"/><path d="M140.12,379.26s7,11.19,7.22,0c0,0,.56-1.26-1.2-1.28C140.06,377.89,141.58,373.78,140.12,379.26Z" transform="translate(-16 -10.92)" style="fill:#ffc;stroke:#000;stroke-width:0.5px"/><path d="M147.29,379.51s7.92,11.19,7.29-.09c0,0,0-.33-1.75-.48C148.08,378.52,148.43,374,147.29,379.51Z" transform="translate(-16 -10.92)" style="fill:#ffc;stroke:#000;stroke-width:0.5px"/><path d="M154.51,379.52s8,10.63,7.29,1c0,0,.12-1.23-1.54-1.53C156.37,378.24,156.16,375,154.51,379.52Z" transform="translate(-16 -10.92)" style="fill:#ffc;stroke:#000;stroke-width:0.5px"/><path d="M161.38,379.6s7.9,11.56,8.25,1.78c0,0,1.64-1.38-.1-1.6C163.71,379,164.51,374.59,161.38,379.6Z" transform="translate(-16 -10.92)" style="fill:#ffc;stroke:#000;stroke-width:0.5px"/><path d="M125.21,383.13l-7.66-1.53a94.63,94.63,0,0,1-4.7-11.15s6.35,1,18.85,3.8c0,0,.88,3.32,2.35,9.11Z" transform="translate(-16 -10.92)" style="fill:#e5e5b2"/><path d="M190.28,378.47c-1.67-2.51-3-4.26-3.64-4.67-3-1.88,1.13-1.51,2.26-1.51,0,0,16.57,0,18.46.76,0,0,.52,2.24,1.2,5.63C208.56,378.68,198.48,376.67,190.28,378.47Z" transform="translate(-16 -10.92)" style="fill:#e5e5b2"/><path d="M243.88,240.32c27.72,4,53.24-31.68,55-41.36s-8.36-21.56-8.36-21.56c1.32-3.08-3.52-17.16-8.8-26.4s-21.18-8.27-38.72-9.24c-15.84-.88-34.32,22.44-35.64,24.2s4.84,40,6.16,45.76-1.32,32.12-1.32,32.12C246.44,234.74,216.16,236.36,243.88,240.32Z" transform="translate(-16 -10.92)" style="fill:#cc7226"/><path d="M208.09,166.61c-1.3,1.73,4.75,39.31,6,44.93s-1.3,31.53-1.3,31.53c32.67-8.88,3.89-7.34,31.1-3.45s52.28-31.11,54-40.61-8.2-21.17-8.2-21.17c1.29-3-3.46-16.85-8.64-25.92s-20.8-8.11-38-9.07C227.53,142,209.38,164.88,208.09,166.61Z" transform="translate(-16 -10.92)" style="fill:#ea8e51"/><path d="M208.82,167.26c-1.28,1.69,4.66,38.58,5.93,44.09s-1.27,31-1.27,31c31.4-9.16,3.82-7.21,30.53-3.4s51.3-30.52,53-39.85S289,178.28,289,178.28c1.27-3-3.39-16.54-8.48-25.44s-20.41-8-37.31-8.9C227.9,143.09,210.09,165.56,208.82,167.26Z" transform="translate(-16 -10.92)" style="fill:#efaa7c"/><path d="M209.54,167.9c-1.24,1.67,4.58,37.86,5.83,43.27s-1.25,30.37-1.25,30.37c29.44-9,3.74-7.07,29.95-3.33s50.34-30,52-39.1-7.9-20.39-7.9-20.39c1.25-2.91-3.33-16.22-8.32-25s-20-7.82-36.61-8.74C228.26,144.19,210.79,166.24,209.54,167.9Z" transform="translate(-16 -10.92)" style="fill:#f4c6a8"/><path d="M210.27,168.55c-1.22,1.63,4.49,37.13,5.71,42.43s-1.22,29.79-1.22,29.79c27.87-8.92,3.67-6.94,29.38-3.26s49.36-29.38,51-38.36-7.75-20-7.75-20c1.22-2.86-3.27-15.91-8.17-24.48s-19.64-7.67-35.9-8.57C228.63,145.3,211.5,166.92,210.27,168.55Z" transform="translate(-16 -10.92)" style="fill:#f9e2d3"/><path d="M244.2,236.8c25.2,3.6,48.4-28.8,50-37.6s-7.6-19.6-7.6-19.6c1.2-2.8-3.2-15.6-8-24s-19.25-7.51-35.2-8.4c-14.4-.8-31.2,20.4-32.4,22s4.4,36.4,5.6,41.6-1.2,29.2-1.2,29.2C240.9,231.4,219,233.2,244.2,236.8Z" transform="translate(-16 -10.92)" style="fill:#fff"/><path d="M290.6,202.8s-27.8,7.6-39.4,6c0,0-15.8-6.6-24.6,15.2,0,0-3.6,7.2-5.6,9.2S290.6,202.8,290.6,202.8Z" transform="translate(-16 -10.92)" style="fill:#ccc"/><path d="M294.4,200.6s-29,12.2-39,11.8c0,0-16.4-4.6-24.8,10,0,0-8.4,9.2-11.6,10.8,0,0-.4,1.6,6-2.4l10.4,5.2s14.8,9.6,24.4-6.4c0,0,4-11.2,4-13.2s21.2-7.6,22.8-8S294.8,203.8,294.4,200.6Z" transform="translate(-16 -10.92)"/><path d="M247,236.51c-6.87,0-15.25-3.86-15.25-10.11s8.38-12.51,15.25-12.51,12.45,5.06,12.45,11.31S253.87,236.51,247,236.51Z" transform="translate(-16 -10.92)" style="fill:#99cc32"/><path d="M243.38,219.83c-4.85.72-9.94,2.23-9.87,2,1.54-4.62,7.91-8,13.49-8a12.78,12.78,0,0,1,10.32,5A73.91,73.91,0,0,0,243.38,219.83Z" transform="translate(-16 -10.92)" style="fill:#659900"/><path d="M255.4,219.6s-4.4-3.2-4.4-1C251,218.6,254.6,223,255.4,219.6Z" transform="translate(-16 -10.92)" style="fill:#fff"/><path d="M245.4,227.73a4.53,4.53,0,1,1,4.53-4.53A4.52,4.52,0,0,1,245.4,227.73Z" transform="translate(-16 -10.92)"/><path d="M141.4,214.4s-3.2-21.2-.8-25.6c0,0,10.8-10,10.4-13.6,0,0-.4-18-1.6-18.8s-8.8-6.8-14.8-.4c0,0-10.4,18-9.6,24.4v2s-7.6-.4-9.2,1.6c0,0-1.2,5.2-2.4,5.6,0,0-2.8,2.4-.8,5.2a9.07,9.07,0,0,0-1.6,6.4l7.6,4s2,14.4,12.8,19.6C136.24,227.13,139.4,220.4,141.4,214.4Z" transform="translate(-16 -10.92)" style="fill:#cc7226"/><path d="M140.4,212.56s-2.88-19.08-.72-23c0,0,9.72-9,9.36-12.24,0,0-.36-16.2-1.44-16.92s-7.92-6.12-13.32-.36c0,0-9.36,16.2-8.64,22v1.8s-6.84-.36-8.28,1.44c0,0-1.08,4.68-2.16,5,0,0-2.52,2.16-.72,4.68a8.16,8.16,0,0,0-1.44,5.76l6.84,3.6s1.8,13,11.52,17.64C135.75,224,138.6,218,140.4,212.56Z" transform="translate(-16 -10.92)" style="fill:#fff"/><path d="M149,157.39c-1.09-.86-8.58-6.63-14.43-.39,0,0-10.14,17.55-9.36,23.79v2s-7.41-.39-9,1.56c0,0-1.17,5.07-2.34,5.46,0,0-2.73,2.34-.78,5.07a8.84,8.84,0,0,0-1.56,6.24l7.41,3.9s2,14,12.48,19.11c4.71,2.27,7.8-4.29,9.75-10.14,0,0-3.12-20.67-.78-25,0,0,10.53-9.75,10.14-13.26C150.51,175.72,150.12,158.17,149,157.39Z" transform="translate(-16 -10.92)" style="fill:#eb955c"/><path d="M148.5,158.38c-1-.92-8.36-6.46-14.06-.38,0,0-9.88,17.1-9.12,23.18v1.9s-7.22-.38-8.74,1.52c0,0-1.14,4.94-2.28,5.32,0,0-2.66,2.28-.76,4.94a8.62,8.62,0,0,0-1.52,6.08l7.22,3.8s1.9,13.68,12.16,18.62c4.59,2.21,7.6-4.18,9.5-9.88,0,0-3-20.14-.76-24.32,0,0,10.26-9.5,9.88-12.92C150,176.24,149.64,159.14,148.5,158.38Z" transform="translate(-16 -10.92)" style="fill:#f2b892"/><path d="M148.05,159.37c-.87-1-8.14-6.29-13.69-.37,0,0-9.62,16.65-8.88,22.57v1.85s-7-.37-8.51,1.48c0,0-1.11,4.81-2.22,5.18,0,0-2.59,2.22-.74,4.81a8.39,8.39,0,0,0-1.48,5.92l7,3.7s1.85,13.32,11.84,18.13c4.47,2.15,7.4-4.07,9.25-9.62,0,0-3-19.61-.74-23.68,0,0,10-9.25,9.62-12.58C149.53,176.76,149.16,160.11,148.05,159.37Z" transform="translate(-16 -10.92)" style="fill:#f8dcc8"/><path d="M140.4,212.46s-2.88-19-.72-22.94c0,0,9.72-9,9.36-12.24,0,0-.36-16.2-1.44-16.92-.76-1-7.92-6.12-13.32-.36,0,0-9.36,16.2-8.64,22v1.8s-6.84-.36-8.28,1.44c0,0-1.08,4.68-2.16,5,0,0-2.52,2.16-.72,4.68a8.16,8.16,0,0,0-1.44,5.76l6.84,3.6s1.8,13,11.52,17.64C135.75,224,138.6,217.86,140.4,212.46Z" transform="translate(-16 -10.92)" style="fill:#fff"/><path d="M137.3,206.2s-21.6-10.2-22.5-11c0,0,9.1,8.2,9.9,8.2S137.3,206.2,137.3,206.2Z" transform="translate(-16 -10.92)" style="fill:#ccc"/><path d="M120.2,200s18.4,3.6,18.4,8c0,2.91-.24,16.33-5.6,14.8C124.6,220.4,128.2,206,120.2,200Z" transform="translate(-16 -10.92)"/><path d="M128.6,203.8s9,1.47,10,4.2c.6,1.6,1.26,9.91-4.2,11C129.85,219.91,127.62,209.69,128.6,203.8Z" transform="translate(-16 -10.92)" style="fill:#99cc32"/><path d="M214.6,246.35c-.5-1.74.81-1.61,2.6-2.15,2-.6,14.2-4.4,15-7s14,1.8,14,1.8c1.8.8,6.2,3.4,6.2,3.4a76.16,76.16,0,0,0,11.4,1.6,31,31,0,0,1,5.8,3.8c14.6,10.2,27,3,27,3,20-6.6,14-23.8,14-23.8-3-9,.2-12.4.2-12.4.2-3.8,7.4,2.6,7.4,2.6a28.4,28.4,0,0,1,3.4,9.2c8,11.2,4.6-6.6,4.6-6.6.2-1-2.6-4.6-2.6-5.8s-1.8-4.6-1.8-4.6c-3-3.4-.6-10.4-.6-10.4,1.8-13.8-.4-12-.4-12-1.2-1.8-10.4,8.2-10.4,8.2-2.2,3.4-8.2,5-8.2,5-2.8,1.8-6.2.4-6.2.4-2.6-.4-8.2,6.6-8.2,6.6,2.8-.2,5.2,4.2,7.6,4.4s4.2-2.4,5.8-3,4.4,5.2,4.4,5.2c.4,2.6-5.2,7.4-5.2,7.4-.4,4.6-2,3-2,3-3-.6-4.2,3.2-5.2,7.8a6.19,6.19,0,0,1-5.2,5c-1.6,7.4-2.8,4.4-2.8,4.4-.2-5.6-6.2.2-6.2.2-1.2,2-5.8-.2-5.8-.2-6.8-2-4.4-4-4.4-4,1.8-2.2,13,0,13,0,2.2-1.6-5.8-5.6-5.8-5.6-.6-1.8.4-6.2.4-6.2,1.2-3.2,8-8.8,8-8.8,9.4-1.2,6.6-2.8,6.6-2.8-6.2-5.2-12,2.4-12,2.4-2.2,6.2-19.6,21.2-19.6,21.2-4.8,3.4-2.2-3.4-6.2,0s-24.6-5.6-24.6-5.6c-11.56-1.19-14.29,14.55-17.82,11.43C210.78,243.43,216.19,252,214.6,246.35Z" transform="translate(-16 -10.92)"/><g style="opacity:0.5"><path d="M454.17,86.38s-25.6,8-28.4,26.8c0,0-2.4,22.8,18,40.4,0,0,.4,6.4,2.4,9.6,0,0-1.6,4.8,17.2-2.8l27.2-8.4s6.4-2.4,11.6-11.2,20.4-27.6,16.8-52.8c0,0,1.2-11.2-4.8-11.6,0,0-8.4-1.6-15.6,6,0,0-6.8,3.2-9.2,2.8Z" transform="translate(-16 -10.92)"/></g><path d="M464,79s2.1-8.93-2.74-4.09c0,0-7,5.72-14.52,5.72,0,0-14.52,2.2-18.92,15.4,0,0-4,26.84,4,32.56,0,0,4.84,7.48,11.88.88S466.22,92.65,464,79Z" transform="translate(-16 -10.92)"/><path d="M463.65,79.37s2.09-8.75-2.66-4c0,0-6.92,5.61-14.26,5.61,0,0-14.26,2.16-18.58,15.12,0,0-3.89,26.35,3.89,32,0,0,4.75,7.34,11.67.86S465.81,92.76,463.65,79.37Z" transform="translate(-16 -10.92)" style="fill:#323232"/><path d="M463.27,79.73s2.08-8.56-2.58-3.9c0,0-6.78,5.51-14,5.51,0,0-14,2.12-18.24,14.84,0,0-3.81,25.87,3.82,31.38,0,0,4.67,7.21,11.45.85S465.39,92.87,463.27,79.73Z" transform="translate(-16 -10.92)" style="fill:#666"/><path d="M462.9,80.08s2.07-8.37-2.51-3.79c0,0-6.65,5.41-13.73,5.41,0,0-13.72,2.08-17.88,14.56,0,0-3.75,25.37,3.74,30.78,0,0,4.58,7.07,11.23.83S465,93,462.9,80.08Z" transform="translate(-16 -10.92)" style="fill:#999"/><path d="M462.53,80.44s2.06-8.18-2.43-3.7c0,0-6.53,5.31-13.47,5.31,0,0-13.46,2-17.54,14.28,0,0-3.67,24.89,3.67,30.19,0,0,4.49,6.94,11,.82S464.57,93.09,462.53,80.44Z" transform="translate(-16 -10.92)" style="fill:#ccc"/><path d="M462.15,80.8s2.05-8-2.35-3.6c0,0-6.4,5.2-13.2,5.2,0,0-13.2,2-17.2,14,0,0-3.6,24.4,3.6,29.6,0,0,4.4,6.8,10.8.8S464.15,93.2,462.15,80.8Z" transform="translate(-16 -10.92)" style="fill:#fff"/><path d="M250.6,284s-20.4-19.2-28.4-20c0,0-34.4-4-49.2,14,0,0,17.6-20.4,45.2-14.8,0,0-21.6-4.4-34-1.2,0,0-16.8,0-26.4,14l-2.8,4.8s4-14.8,22.4-20.8c0,0,22.8-4.8,33.6,0,0,0-21.6-6.8-31.6-4.8,0,0-30.4-2.4-43.2,24A37.42,37.42,0,0,1,155,257.6s13.6-8.8,34-6c0,0,14.4,3.2,19.6,5.6s4-.4-4.4-5.2c0,0-5.6-10-19.6-9.6,0,0-42.8,3.6-53.2,15.6,0,0,13.6-11.2,24-14,0,0,22.4-8,30.8-7.2,0,0,24.8,1,32.4-3,0,0-11.2,5-8,8.2s10,10.8,10,12,24.2,23.3,27.8,27.7Z" transform="translate(-16 -10.92)" style="fill:#992600"/><path d="M389,478s-15.5-36.5-28-46c0,0,26,16,29.5,34C390.5,466,390.5,476,389,478Z" transform="translate(-16 -10.92)" style="fill:#ccc"/><path d="M436,485.5s-26.5-55-45-79c0,0,43.5,37.5,48.5,64l.5,5.5-3-2.5S436.5,482.5,436,485.5Z" transform="translate(-16 -10.92)" style="fill:#ccc"/><path d="M492.5,437s-62.5-59.5-64-62c0,0,60.5,66,63.5,73.5C492,448.5,490,439.5,492.5,437Z" transform="translate(-16 -10.92)" style="fill:#ccc"/><path d="M304,480.5s19.5-52,38.5-29.5c0,0,15,10,14.5,13,0,0-4-6.5-22-6C335,458,316,455,304,480.5Z" transform="translate(-16 -10.92)" style="fill:#ccc"/><path d="M494.5,353s-45-28.5-52.5-30c-11.81-2.36,49.5,29,54.5,39.5C496.5,362.5,498.5,360,494.5,353Z" transform="translate(-16 -10.92)" style="fill:#ccc"/><path d="M343.8,459.6s20.4-2,27.2-8.8l4.4,3.6L393,416l3.6,5.2s14.4-14.8,13.6-22.8,12.8,6,12.8,6-.8-11.6,6.4-4.8c0,0-2.4-15.6,6-7.6,0,0-10.54-30.16,12-4.4,5.6,6.4,1.2-.4,1.2-.4s-26-48-4.4-33.6c0,0,2-22.8.8-27.2s-3.2-26.8-8-32,.4-6.8,6-1.6c0,0-11.2-24,2-12,0,0-3.6-15.2-8-18,0,0-5.6-17.2,9.6-6.4,0,0-4.4-12.4-7.6-15.6,0,0-11.6-27.6-4.4-22.8l4.4,3.6s-6.8-14-.4-9.6,6.4,4,6.4,4-21.2-33.2-.8-15.6c0,0-8.16-13.92-11.6-20.8,0,0-18.8-20.4-4.4-14l4.8,1.6s-8.8-10-16.8-11.6,2.4-8,8.8-6,22,9.6,22,9.6,12.8,18.8,16.8,19.2c0,0-20-7.6-14,.4,0,0,14.4,14,7.2,13.6a14.69,14.69,0,0,0-1.2,16s-18.46-18.39-3.6,7.2L459,232s-24.4-24.8-13.2-2.8c0,0,17.2,23.6,19.2,24s6.4,9.2,6.4,9.2l-4.4-2,5.2,8.8s-11.2-12-5.2,1.2l5.6,14.4s-20.4-22-6.8,7.6c0,0-16.4-5.2-7.6,12,0,0-1.6,16-1.2,21.2s1.6,33.6-2.8,41.6,6,27.2,8,31.2,5.6,14.8-3.2,5.6-4.4-3.6-2.4,5.2,8,24.4,7.2,30c0,0-1.2,1.2-4.4-2.4,0,0-14.8-22.8-13.2-8.4a97.49,97.49,0,0,1-4.4,16.8s-3.2,10.8-3.2,2c0,0-3.2-16.8-6-9.2s-6.4,13.6-9.2,16-8-20.4-9.2-10c0,0-12-12.4-16.8,4l-11.6,16.4s-.4-12.4-1.6-6.4C384.2,458,354.2,464,343.8,459.6Z" transform="translate(-16 -10.92)"/><path d="M309.4,102.8s-11.6-8-15.6-7.6,27.6-8.8,68.8,18.8c0,0,4.8,2.8,8.4,2.4,0,0,3.2,2.4.4,6,0,0-8.8,9.6,2.4,20.8,0,0,18.4,6.8,12.8-2,0,0,10.8,4,13.2,8s1.2,0,1.2,0a160.55,160.55,0,0,0-12.4-12.4s-5.2-2-8-10.4-5.2-18.4-.8-21.6c0,0-4,4.4-3.2.4s4.4-7.6,6-8,18-16.2,24.8-16.6c0,0-9.2,1.4-12.2.4s-29.6-12.4-35.6-13.6c0,0-16.8-6.6-4.8-4.6,0,0,35.8,3.8,54,17,0,0-7.2-8.4-25.6-15.4,0,0-22.2-12.6-57.4-7.6,0,0-17.8,3.2-25.6,5a18.07,18.07,0,0,1-3.2-1c-.6-.4-12.4-9.4-40-2.4,0,0-17,4.6-25.6,9.4,0,0-15.2,1.2-18.8,4.4,0,0-18.6,14.6-20.6,15.4s-13.4,8.4-14.2,8.8c0,0,24.6-6.6,27-9s19.8-5,22.2-3.6,10.8.8,1.2,1.4c0,0,75.6,14.8,76.4,16.8S309.4,102.8,309.4,102.8Z" transform="translate(-16 -10.92)"/><path d="M380.8,93.6s-10.2-7.4-12.2-7.4S354.2,76,350,76.4s-16.4-9.6-43.8-1.4c0,0-.6-2,3-2.8,0,0,6.4-2.2,6.8-2.8,0,0,20.2-4.2,27.4-.6,0,0,9.2,2.6,15.4,8.8,0,0,11.2,3.2,14.4,2.2,0,0,8.8,2.2,9.2,4,0,0,5.8,3,4,5.6C386.4,89.4,386.8,91,380.8,93.6Z" transform="translate(-16 -10.92)" style="fill:#cc7226"/><path d="M368.33,91.49c.81.63,1.83.73,2.43,1.54.23.31-.05.64-.37.74-1,.31-2.1-.26-3.24.33a2.52,2.52,0,0,1-1.6-.12,8.07,8.07,0,0,0-5.15.22c-2-1.13-4.34-.55-6.42-1.55-.06,0-.28.32-.36.3-3.05-1.15-6.79-.87-9.22-3.15a68.73,68.73,0,0,1-7.21-1.55,25.8,25.8,0,0,1-4.85-2.33A19.88,19.88,0,0,0,328,84.31c-1.86-.45-3.69-.34-5.58-.86-.1,0-.29.32-.37.3-.33-.11-.62-.69-.79-.64-1.68.52-3.16-.45-4.83-.11-1.18-1.22-2.9-1-4.45-1.42-3-.85-6.12.42-9.15-.58,4.11-1.84,8.8-.61,12.86-2.68,2.33-1.18,5-.08,7.56-.84.49-.15,1.18-.35,1.58.32.13-.13.32-.37.38-.35,2.45,1.16,4.76,2.44,7.24,3.5.34.15.87-.09,1.13.12,1.52,1.21,3.46,1.11,4.85,2.33,1.7-.5,3.49-.12,5.22-.75.08,0,.31.32.34.3a3.45,3.45,0,0,1,3.18-.18c.34.12,1,.37,1.31.44,1.12.28,2,.75,3.16.94.11,0,.3-.32.37-.3,1.12.44,2.17.39,2.82,1.55.14-.14.3-.37.38-.35,1,.34,1.68,1.1,2.78,1.34.49.1,1.1.73,1.67.91,2.39.73,4.24,2.26,6.43,3.15A9.58,9.58,0,0,1,368.33,91.49Z" transform="translate(-16 -10.92)" style="fill:#cc7226"/><path d="M291.7,77.26c-2.52-1.72-4.89-2.83-7.33-4.62-.18-.13-.54,0-.74-.08-1-.61-1.9-1.19-2.88-1.89-.54-.38-1.36-.37-1.87-.63-2.54-1.29-5.17-1.85-7.68-3,.68-.64,1.8-.39,2.4-1.2.19.28.43.56.79.37a9.73,9.73,0,0,1,5.2-1,51.44,51.44,0,0,1,5.2.67c.31,0,.5.57.83.66,2.23.67,4.62.14,6.73,1a12.38,12.38,0,0,1,4.4,2.72c.26.27-.07.57-.35.76a.6.6,0,0,1,.77.41,1.16,1.16,0,0,1,0,.78c-.11.31-.39.41-.76.46-1.41.19.36-1.19-.34-.74-1.27.82-.52,2.22-1.27,3.49-.28-.19-.51-.41-.4-.8.24.52-.37.81-.54,1.13C293.48,76.45,292.58,77.87,291.7,77.26Z" transform="translate(-16 -10.92)" style="fill:#cc7226"/><path d="M259.2,84.61c-3.16-.79-6.21-.68-9.22-2-.07,0-.29.32-.36.3a11.54,11.54,0,0,1-3.36-2.61c-.91-.89-2.57-.5-3.84-1-.32-.12-.53-.63-.83-.67-1.22-.16-2.15-1.11-3.19-1.68,2.34-.79,4.75-.76,7.21-1.15.11,0,.26.3.39.3s.27-.22.4-.35c.2.28.5.61.75.35.55-.54,1.11-.35,1.65-.31.14,0,.27.31.4.31s.27-.31.4-.31.27.31.4.31.27-.22.4-.35c.69.78,1.58.23,2.4.41,1,.22,1.3,1.37,2.38,1.67,4.71,1.3,8.85,3.45,13.21,5.54a.62.62,0,0,1,.41.78c.27,0,.58-.09.77,0a9,9,0,0,1,2.8,2.38c.21.34-.12.75-.35.7C267.59,86.32,263.58,85.71,259.2,84.61Z" transform="translate(-16 -10.92)" style="fill:#cc7226"/><path d="M245.34,128.82c-1.59-1.22-2.18-3.25-3.31-5-.21-.34.06-.65.38-.74.56-.16,1.1.32,1.51.52,1.75.86,3.28,2.1,5.28,2.24,2,2.23,6.25,2.62,6.26,6,0,.86-1.43-.06-1.86.8-2.45-1-4.84-.9-7.22-2.37C245.76,129.85,246.09,129.4,245.34,128.82Z" transform="translate(-16 -10.92)" style="fill:#cc7226"/><path d="M217.8,76.24c.13,0,7.17.24,7.15.35,0,.31-7.78,1.36-8.14,1.19-.16-.08-7.68,2.35-7.81,2.22C209.27,79.86,217.53,76.24,217.8,76.24Z" transform="translate(-16 -10.92)" style="fill:#cc7226"/><path d="M233.2,86s-14.8,1.8-19.2,3-23,8.8-26,10.8c0,0-13.4,5.4-30.4,25.4,0,0,7.6-3.4,9.8-6.2,0,0,13.6-12.6,13.4-10,0,0,12.2-8.6,11.6-6.4,0,0,24.4-11.2,22.4-8,0,0,21.6-4.6,20.6-2.6,0,0,18.8,4.4,16,4.6,0,0-5.8,1.2.6,4.8,0,0-3.4,4.4-8.8.4s-2.4-1.8-7.4-.8c0,0-2.6.8-7.2-3.2,0,0-5.6-4.6-14.4-1,0,0-30.6,12.6-32.6,13.2a31.44,31.44,0,0,0-6,6.4s-5.8,4.4-8.8,5.8c0,0-12.8,11.6-14,13,0,0-3.4,5.2-4.2,5.6,0,0,6.4-3.8,8.4-5.8,0,0,14-10,19.4-10.8,0,0,4.4-3,5.2-4.4,0,0,14.4-9.2,18.6-9.2,0,0,9.2,5.2,11.6-1.8a25.63,25.63,0,0,1,11.4-.6s3.2-2.6,2.4-4.8c0,0,1.6-1.8,2.6,2a7.57,7.57,0,0,0,8.2,1.6s4-.2,2,2.2c0,0-4.4,3.8-16.2,4,0,0-12.4.6-28.8,8.2,0,0-29.8,10.4-39,20.8,0,0-6.4,8.8-11.8,10,0,0-5.8.8-11.8,8.2,0,0,9.8-5.8,18.8-5.8,0,0,4-2.4.2,1.2,0,0-3.6,7.6-2,13,0,0-.6,5.2-1.4,6.8,0,0-7.8,12.8-7.8,15.2s1.2,12.2,1.6,12.8-1-1.6,2.8.8,6.6,4,7.4,6.8-2-5.4-2.2-7.2-4.4-9-3.6-11.4a12.65,12.65,0,0,1,1.8,2.4s-.6-.6,0-4.2a42.25,42.25,0,0,1,2.2-8.4c1.4-3.2,3.4-7,3.8-7.8s.4-6.6,1.8-4l3.4,2.6s-2.8-2.6-.6-4.8c0,0-1-5.6.8-8.2,0,0,7-8.4,8.6-9.4s.2-.6.2-.6,6-4.2.2-2.6a23.46,23.46,0,0,1-7,1.6s-7.6,2-3.6-2.2,14-9.6,17.8-9.4l.8,1.6,11.2-2.4-1.2.8s-.2-.2,4-.6,10,1,11.4-.8,4.8-2.8,4.4-1.4a23.8,23.8,0,0,0-.6,3.4s5-5.8,4.4-3.6-8.8,7.4-10.2,13.6l10.4-8.2,3.6-3s3.6,2.2,3.8.6,4.8-7.4,6-7.2,3.2-2.6,3,0,7.4,8,7.4,8,3.2-1.8,4.6-.4,5.6-19.8,5.6-19.8l25-10.6,43.6-3.4-17-6.8Z" transform="translate(-16 -10.92)"/><path d="M251.4,285s-15-16.8-23.4-19.4c0,0-13.4-6.8-38,1" transform="translate(-16 -10.92)" style="fill:none;stroke:#4c0000;stroke-width:2px"/><path d="M224.8,264.2s-25.2-8-40.6-3.8c0,0-18.4,2-26.8,15.8" transform="translate(-16 -10.92)" style="fill:none;stroke:#4c0000;stroke-width:2px"/><path d="M221.2,263s-17-7.2-31.8-9.4c0,0-16.6-2.6-33.2,4.6,0,0-12.2,6-17.6,16.2" transform="translate(-16 -10.92)" style="fill:none;stroke:#4c0000;stroke-width:2px"/><path d="M222.2,263.4s-15.4-11-16.4-12.4c0,0-7-11-20-11.4,0,0-21.4.8-38.6,8.8" transform="translate(-16 -10.92)" style="fill:none;stroke:#4c0000;stroke-width:2px"/><path d="M220.9,254.41c1.54,1.46,28.5,30.39,28.5,30.39,35.2,36.6,7.2,2.4,7.2,2.4-7.6-4.8-16.8-23.6-16.8-23.6-1.2-2.8,14,7.2,14,7.2,4,.8,17.6,20,17.6,20-6.8-2.4-2,4.8-2,4.8,2.8,2,23.2,17.6,23.2,17.6a22.87,22.87,0,0,0,7.6,5.6c14-5.2,7.6,8,7.6,8,2.4,6.8,8-4.8,8-4.8,11.2-16.8-5.2-14.4-5.2-14.4-30,2.8-36.8-13.2-36.8-13.2-2.4-2.4,6.4,0,6.4,0,8.4,2-7.2-12.4-7.2-12.4,2.4,0,11.6,6.8,11.6,6.8C295,298,297,296,297,296c18-8.8,28.4-1.2,28.4-1.2,2,1.6-3.6,8.4-2,13.6s6.4,17.6,6.4,17.6c-2.4,1.6-2,12.4-2,12.4,16.8,23.2,7.2,21.2,7.2,21.2-15.6-.4-.8,7.2-.8,7.2,3.2,2,12,9.2,12,9.2-2.8-1.2-4.4,4-4.4,4a6.9,6.9,0,0,1,2,8.8c-6,1.2-7.2,5.2-7.2,5.2,6.8,8-3.2,8.4-3.2,8.4,3.6,4.4-1.2,16.4-1.2,16.4-4.8,0-11.2,5.6-11.2,5.6,2.4,4.8-8,10.4-8,10.4-8.4,1.6-5.6,8.4-5.6,8.4-8,6-10.4,22-10.4,22-.8,10.4-3.2,13.6,2,11.6s4.4-14.4,4.4-14.4c-4.8-15.6,38-31.6,38-31.6,4-1.6,4.8-6.8,4.8-6.8,2,.4,10.8,8,10.8,8,7.6,11.2,8,2,8,2,1.2-3.6-.4-9.6-.4-9.6,6-21.6-8-28-8-28-10-33.6,4-25.2,4-25.2,2.8,5.6,13.6,10.8,13.6,10.8l3.6-2.4c-1.6-4.8,6.8-10.8,6.8-10.8,2.8,6.4,8.8-1.6,8.8-1.6,3.6-24.4,16-10,16-10,4,1.2,5.2-5.6,5.2-5.6,3.6-10.4,0-24,0-24,3.6-.4,13.2,5.6,13.2,5.6,2.8-3.6-6.4-20.4-2.4-18a55.6,55.6,0,0,0,8.4,4c.8-2-9.2-14.4-9.2-14.4-4.4-2.8-9.6-23.2-9.6-23.2,7.2,3.6-2.8-11.6-2.8-11.6,0-3.2,6-14.4,6-14.4-.8-6.8,0-6.4,0-6.4,2.8,1.2,10.8,2.8,4-3.6s.8-11.2.8-11.2c4.4-2.8-9.2-2.4-9.2-2.4-5.2-4.4-4.8-8.4-4.8-8.4,8,2-6.4-12.4-8.8-16s7.2-8.8,7.2-8.8c13.2-3.6,1.6-6.8,1.6-6.8-19.6.4-8.8-10.4-8.8-10.4,6,.4,4.4-2,4.4-2-5.2-1.2-14.8-7.6-14.8-7.6-4-3.6-.4-2.8-.4-2.8,16.8,1.2-12-10-12-10,8,0-10-10.4-10-10.4-2-1.6-5.2-9.2-5.2-9.2a76.93,76.93,0,0,1-10.8-12c-.4-4.4-5.2-9.2-5.2-9.2-11.6-13.6-17.2-13.2-17.2-13.2-14.8-3.6-20-2.8-20-2.8l-52.8,4.4c-26.4,12.8-18.6,33.8-18.6,33.8,6.4,8.4,15.6,4.6,15.6,4.6,4.6-6.2,16.2-4,16.2-4,20.4,3.2,17.8-.4,17.8-.4-2.4-4.6-18.6-10.8-18.8-11.4s-9-4-9-4c-3-1.2-7.4-10.4-7.4-10.4-3.2-3.4,12.6,2.4,12.6,2.4-1.2,1,6.2,5,6.2,5a38.31,38.31,0,0,1,28,9.8c10.8,16.6,11,8.4,11,8.4,2.8-9.4-9-30.6-9-30.6.4-2,8.6,4.6,8.6,4.6,1.4-2,2.2,3.8,2.2,3.8.2,2.4,4,10.4,4,10.4,2.8,13,6.4,5.6,6.4,5.6l4.6,9.4C328,146.4,322,154,322,154c-.2,2.8.6,2.6-5,10.2s-2.2,12-2.2,12c-1.4,6.6,7.4,6.2,7.4,6.2a10.28,10.28,0,0,0,6,2.2,4.48,4.48,0,0,0,4.2,1.4c1.6-3.8,7.8-1.8,7.8-1.8,1.4-2.4,9.6-2.8,9.6-2.8,1-2.6,1.4-4.2,4.8-4.8S333.4,133,333.4,133c6.4-.8-1.8-13.2-1.8-13.2-2.2-6.6,9.2,8,11.4,9.4s3.2,3.6,1.6,3.4-3.4,2-2,2.2S357,150,360.4,160.2s9.4,14.2,15.6,20.2,5.4,30.2,5.4,30.2C381,219.4,387,230,387,230c2,3.8-2.2,22-2.2,22-2,2.2-.6,3-.6,3,1,1.2,7.8,14.4,7.8,14.4-1.8-.2,1.8,3.4,1.8,3.4,5.2,6-1.2,3-1.2,3-6-1.6,1,8.2,1,8.2,1.2,1.8-7.8-2.8-7.8-2.8-9.2-.6,2.4,6.6,2.4,6.6,8.6,7.2-2.8,2.8-2.8,2.8-4.6-1.8-1.4,5-1.4,5,3.2,1.6,20.4,8.6,20.4,8.6.4,3.8-2.6,8.8-2.6,8.8a12.8,12.8,0,0,1-1.8,7.4c-1.2,8.2-1.8,9-1.8,9-4.2.2-11.6,14-11.6,14-1.8,2.6-12,14.6-12,14.6-2,7-20-.2-20-.2-6.6,3.4-4.6,0-4.6,0-.4-2.2,4.4-8.2,4.4-8.2,7-2.6,4.4-13.4,4.4-13.4,4-1.4-7.2-4.2-7-5.4s6-2.6,6-2.6c8-2,3.6-4.4,3.6-4.4-.6-4,2.4-9.6,2.4-9.6,11.6-.8,0-17,0-17C353,289.6,352,283.8,352,283.8c12.6-8.2,4.4-20.6,4.6-24.2l1.4-25.2c-2-6.2-5-19.8-5-19.8,2.2-5.2,9.6-17.8,9.6-17.8,2.8-4.2,11.6-9,9.4-12s-10-1.2-10-1.2c-7.8-1.4-7.2,3.8-7.2,3.8-1.6,1-2.4,6-2.4,6-.72,7.93-9.6,14.2-9.6,14.2-11.2,6.2-2,10.2-2,10.2,6,6.6-3.8,6.8-3.8,6.8-11-1.8-2.8,8.4-2.8,8.4,10.8,12.8,7.8,15.6,7.8,15.6-10.2,1,2.4,10.2,2.4,10.2s-.8-2-.6-.2,3.2,6,4,8-3.2,2.2-3.2,2.2c.6,9.6-14.8,5.4-14.8,5.4l-1.6.2c-1.6.2-12.8-.6-18.6-2.8a41,41,0,0,0-12.6-2.2s-4,1.8-11.6,1.6a50.76,50.76,0,0,0-15.6,2.6c-4.4-.4,4.2-4.8,4.4-4.6s5.8-5.4-2.2-4.8c-21.8,1.63-32.6-8.6-32.6-8.6a37.68,37.68,0,0,1-4.6-4.2c-10-2,1.4,12.4,1.4,12.4a1.56,1.56,0,0,1-.2,2.4c-.8-1.6-8.6-7-8.6-7C224.59,258.23,223.23,256.89,220.9,254.41Z" transform="translate(-16 -10.92)"/><path d="M197,242.8s11.6,5.6,14.2,8.4,16.6,14.2,16.6,14.2a47.76,47.76,0,0,1-8-3.8c-2.6-1.8-13.4-10-13.4-10S202.6,245.6,197,242.8Z" transform="translate(-16 -10.92)" style="fill:#4c0000"/><path d="M139,211.6c.34-.15-.19-2.86-.39-3.4-1-2.73-10-4.2-10-4.2a20.76,20.76,0,0,0-.18,4.6S133.29,214.12,139,211.6Z" transform="translate(-16 -10.92)" style="fill:#99cc32"/><path d="M139,211.4c-.45.16,0-2.73-.19-3.2-1-2.73-10.2-4.3-10.2-4.3a20.76,20.76,0,0,0-.18,4.6S132.69,213.62,139,211.4Z" transform="translate(-16 -10.92)" style="fill:#659900"/><path d="M134.6,211.55c-.63,0-1.13-1.14-1.13-2.55s.5-2.55,1.13-2.55,1.13,1.14,1.13,2.55S135.22,211.55,134.6,211.55Z" transform="translate(-16 -10.92)"/><path d="M134.6,209" transform="translate(-16 -10.92)"/><path d="M89,309.6s-5.6,10,19.2,4c0,0,14-1.2,16.4-3.6,1.2.8,9.57,3.73,12.4,4.4,6.8,1.6,15.2-8.4,15.2-8.4s4.6-10.5,7.4-10.5-.4,1.6-.4,1.6-6.6,10.1-6.2,11.7c0,0-5.2,20-21.2,20.8,0,0-16.15.95-14.8,6.8,0,0,8.8-2.4,11.2,0,0,0,10.8-.4,2.8,6L124.2,354s.14,3.92-10,.4c-9.8-3.4-20.1-16.3-20.1-16.3S78.15,323.55,89,309.6Z" transform="translate(-16 -10.92)"/><path d="M87.8,313.6s-2,9.6,34.8-.8a28.27,28.27,0,0,1,6.8.8c2.4.8,14.4,3.6,16.4,2.4,0,0-7.2,13.6-18.8,12,0,0-13.2,1.6-12.8,6.4,0,0,4,7.2,8.8,9.6,0,0,2.8,2.4,2.4,5.6s-3.2,4.8-5.2,5.6-5.2-2.4-6.8-2.4-10-6.4-14.4-11.2S86.2,324.8,86.6,322Z" transform="translate(-16 -10.92)" style="fill:#e59999"/><path d="M91,331.05a94,94,0,0,0,8,10.55c4.4,4.8,12.8,11.2,14.4,11.2s4.8,3.2,6.8,2.4,4.8-2.4,5.2-5.6S123,344,123,344c-3.07-1.53-5.81-5-7.39-7.35,0,0,.19,2.55-5,1.75s-10.4-3.6-12-6.8-4-5.6-2.4-2,4,7.2,5.6,7.6,1.2,1.6-1.2,1.2-5.2-.8-9.6-6Z" transform="translate(-16 -10.92)" style="fill:#b26565"/><path d="M88.4,310s1.8-13.6,3-17.6c0,0-.8-6.8,1.6-11s4.4-10.4,7.4-15.8,3.2-9.4,7.2-11,10-10.2,12.8-11.2,2.6-.2,2.6-.2,6.8-14.8,20.4-10.8c0,0-16.2-2.8-.4-12.2,0,0-4.8,1.1-1.5-5.9,2.2-4.67,1.7,2.1-9.3,13.9,0,0-5,8.6-10.2,11.6s-17.2,10-18.4,13.8-4.4,9.6-6.4,11.2-4.8,5.8-5.2,9.2c0,0-1.2,4-2.6,5.2s-1.6,4.4-1.6,6.4-2,4.8-1.8,7.2c0,0,.8,19,.4,21Z" transform="translate(-16 -10.92)" style="fill:#992600"/><path d="M79.8,314.6s-2-1.4-6.4,4.6c0,0,7.3,33,7.3,34.4,0,0,1.1-2.1-.2-9.3s-2.2-19.9-2.2-19.9Z" transform="translate(-16 -10.92)" style="fill:#fff"/><path d="M101.4,254s-17.6,3.2-17.2,32.4l-.8,24.8S82.2,285.6,81,284s2.8-12.8-.4-6.8c0,0-14,14-6,35.2,0,0,1.5,3.3-1.5-1.3,0,0-4.6-12.6-3.5-19a11.79,11.79,0,0,1,2.1-5s8.6-11.7,11.3-14a25.36,25.36,0,0,1,17.2-19.6S105.9,251.2,101.4,254Z" transform="translate(-16 -10.92)" style="fill:#992600"/><path d="M240.8,187.8c.66-.35.65-1.32,1.23-1.5,1.15-.34,1.31-1.41,1.83-2.19.88-1.32,1.07-2.85,1.65-4.35a3.17,3.17,0,0,0,0-2.31c-1.18-2.48-1.88-4.93-3.32-7.36a10.85,10.85,0,0,1-.73-1.84c-.47-1.38-1.72-2.37-2.58-3.69-.29-.44.23-1.37-.48-1.45-.9-.11-2.35-.69-2.58.34-.59,2.58.42,5.11,1.39,7.55-.78.69-.45,1.61-.3,2.38.71,3.61-.48,7-1.25,10.43,0,.11.32.3.3.37a38.82,38.82,0,0,1-4.5,7.51,17.08,17.08,0,0,0-2.12,3,4.13,4.13,0,0,0-.53,2.74c-3.44,2.78-5.69,6.63-8.3,10.47a1.7,1.7,0,0,0,.38,2.16c.82.4,1.77-.63,2.24-1.47a14.67,14.67,0,0,1,1.24-2c.13-.18-.05-.6.08-.72,2.64-2.35,4.31-5.28,6.76-7.65a15.76,15.76,0,0,0,5.24-2.34c.3-.18.83.07,1.12-.12,1.75-1.18,1.75-3.22,1.85-5.13A3.18,3.18,0,0,1,240.8,187.8Z" transform="translate(-16 -10.92)"/><path d="M232,183.33c.12-.07,0-.5.08-.71s.56-.51.72-.84,0-.59.09-.74a7.84,7.84,0,0,0,1.55-8.44,2.07,2.07,0,0,0,.66-2.73c-.85-1.7-1.05-3.63-2-5.17-.8-1.27-2.38-2.51-3.75-1.21a1.85,1.85,0,0,0-.47,1.9c.07.16.35.31.33.39-.11.33-.66.55-.66.82,0,1.5-1,3-.36,4.34.78,1.63,1.59,3.48,2.27,5.26-1.23,2.12-.2,4.56-2,6.44a.75.75,0,0,0,0,.74,3.45,3.45,0,0,0,1.19,1.18.83.83,0,0,0,.75,0C231,184.2,231.35,183.71,232,183.33Z" transform="translate(-16 -10.92)"/><path d="M294.77,173c1.39,1.8,1.68,4.59-.37,6,.55,3.31,3.9,1.33,6,.8a.54.54,0,0,1,.4-.74c1.06,0,1.74-1,2.8-.86.44-1.56,2.07-2.26,2.72-3.64a10.66,10.66,0,0,0-1.45-11.21c-.2-.26,0-.77-.11-1.14C304,160,301.93,159.69,300,159c-1.18-3.87-1.84-7.91-3.6-11.6-1.61-.25-2.31-2-3.65-2.71s-1.9.86-1.86,1.91c0,.2.46.43.29.79-.07.17-.33.28-.33.41s.22.27.35.4c-.92.82-2.34,1.3-2.63,2.44-1,3.71,1.61,6.84,3.28,10,.59,1.13-.14,2.4-.9,3.61a3.49,3.49,0,0,0-.06,2.68C291.64,169.3,293.24,171,294.77,173Z" transform="translate(-16 -10.92)"/><path d="M257.61,191.41c-1.49,1.85-4.9,4.42-2,6.35a.75.75,0,0,0,.74,0,16,16,0,0,1,6.46-3c.12,0,.39.43.76.27,1.62-.7,3.63-.64,4.81-2,3.77.22,7.33-.89,10.72-2.2,1.16-.45,2.43-1,3.63-1.51a11.31,11.31,0,0,0,3.7-2.64c.13-.14.48-.05.75-.05,0-.86.92-1,1.17-1.61.09-.23-.06-.63.07-.73,2.14-1.63,3.06-3.65,1.89-6a4.62,4.62,0,0,0-1.1-1.67c-1.08-.91-2.18-.06-3.23-.36-.16.63-.89.46-1.27.65-.86.44-2.2-.14-3.05.3a19.11,19.11,0,0,1-4,1.24c-.31.08-1.09,0-1.25.61-.13-.13-.28-.37-.39-.35-1.91.4-3.17.61-4.47,2.31-.1.13-.54-.05-.7.09-1,.8-1.36,2-2.46,2.71-.2.12-.56,0-.75.08-.65.43-1,1.07-1.66,1.52a.44.44,0,0,1-.69-.35c.24-1.95.9-3.73.32-5.61,2.08-2.52,4.59-4.47,6.4-7.2,0-2.17.71-4.31.59-6.39a8.85,8.85,0,0,0-.42-1.27c-.31-.86.59-1.92-.25-2.65-1.4-1.2-2.7-.32-3.52,1.11-1.84.39-3.9,1.08-5.48-.15a13.24,13.24,0,0,1-2.39-2.75c-1-1.3-.65-2.74-.58-4.3,0-.13-.3-.27-.3-.4s.22-.27.35-.4c-.71-.63-1-1.68-2-2a1.85,1.85,0,0,0-1.24-2.28c-2-.69-3.67,1.22-5.57,1.3-.51,0-1-1-1.63-1.35a1.63,1.63,0,0,0-1.49,0,5.35,5.35,0,0,1-2,.82c-1.62.44-2.89,1.53-4.37,2.39a13.75,13.75,0,0,0-3.52,3.61c-.95,1.15-1.08,3.57.34,4.07,1.84.65,3.15-2.06,5.11-1.73a.56.56,0,0,1,.41.75c.39.11.61-.12.8-.4.86,1,2,1.36,3,2.23s2.72.49,3.73,1.48c1.53,1.5,1,4.18,2.91,5.49a22.37,22.37,0,0,0-1.53,4,1.9,1.9,0,0,0,1.92,2.31c1.26-.09,1.52-.85,2-1.93.27.27.74.56.69.78C257,177,256,179,255.55,181.39a.55.55,0,0,1-.75.41c-.47,4.15-4.52,6.54-7.06,9.71a2,2,0,0,0,0,2.15c1.4,1.39,3.36-.16,5.06-.66a2.31,2.31,0,0,1,2.4-2.09c.26,0,.49-.53.82-.66s.85.08,1.13-.12c1.73-1.19,3.14-2.3,4.88-3.49.19-.13.54,0,.75-.08s.51-.54.84-.73.59.09.78.37c-.65.35-.65,1.31-1.23,1.51a8.81,8.81,0,0,0-2,1.23c-.29.19-1-.06-1.06.12C259.51,190.09,258.32,190.53,257.61,191.41Z" transform="translate(-16 -10.92)"/><path d="M202.2,142s-9.24-2.87-20.4,22.8c0,0-2.4,5.2-4.8,7.2s-13.6,5.6-15.6,9.6l-10.4,16s14.8-16,18-18.4c0,0,8-8.4,4.8-1.6,0,0-14,10.8-12.8,20,0,0-5.6,14.4-6.4,16.4,0,0,16-32,18.4-33.2s3.6-1.2,2.4,2.4-1.6,20-4.4,22c0,0,8-20.4,7.2-23.6,0,0,3.2-3.6,5.6,1.6l-1.2,16,4.4,12a94.68,94.68,0,0,1-.8-26.8s-2-10.4,2-4.8,13.6,11.6,13.6,16.4c0,0-5.2-17.6-14.4-22.4l-4,6-1.2-2s-3.6-.8.8-7.6,4-7.6,4-7.6,6.4,7.2,8,7.2c0,0,13.2-7.6,14.4,16.8,0,0,6.8-14.4-2.4-21.2,0,0-14.8-2-13.6-7.2l7.2-12.4c3.6-5.2,2-2.4,2-2.4Z" transform="translate(-16 -10.92)"/><path d="M182.2,158.4s-12.8,0-16,5.2l-7.2,9.6s17.2-10,21.2-11.2S182.2,158.4,182.2,158.4Z" transform="translate(-16 -10.92)"/><path d="M142.2,164.8a5.74,5.74,0,0,0-2.4,4c-.4,2.8-2.8,3.2-2,6s2.8,5.2,2.8,1.2a11.36,11.36,0,0,1,2.4-7.2C143.8,167.6,145.4,163.2,142.2,164.8Z" transform="translate(-16 -10.92)"/><path d="M133.4,226s-8.4-4-11.6-7.6-2.75,1.57-7.6,1.2c-5.85-.44-4.8-16.4-4.8-16.4l-4,7.6s-1.2,14.4,6.8,12c3.91-1.17,5.2.4,3.6,1.2s5.6,1.2,2.8,2.8,11.6-3.6,9.2,6.8Z" transform="translate(-16 -10.92)"/><path d="M120.8,240.4s-15.4,4.4-19-5.2c0,0-4.8,2.4-2.6,5.4s3.4,3.4,3.4,3.4,5.4,1.2,4.8,2-3,4.2-3,4.2S114.6,244.2,120.8,240.4Z" transform="translate(-16 -10.92)"/><path d="M349.2,318.6c-.43,2.14-2.1,2.94-4,3.6-1.92-1-4.51-4.06-6.4-2-.47-.48-1.25-.54-1.6-1.2-.46-.9-.19-1.94-.53-2.74-.55-1.27-1.26-2.64-1.07-4.06a3.51,3.51,0,0,0,1.93-4.38c-.07-.26-.5-.45-.3-.8a4.26,4.26,0,0,1,.77-.82c-.13.13-.28.37-.39.35-.61-.11-.49-.74-.36-1.13a2.36,2.36,0,0,1,3.95-.82c.26-.56.77-.37,1.2-.4a3.11,3.11,0,0,1,.56-1.53c.52-1.09,2.14,0,2.94-.6,1.08-.82,2.14-1.52,3.22-.92a13.48,13.48,0,0,1,4.72,4,5.35,5.35,0,0,1,.75,3.08c0,.64-1.42.29-1.76,1.22-.65,1.75,1.19,2.27,1.94,3.61.2.35-.06.65-.38.75s-1.19-.06-1.06.39C354.31,317.35,351.55,318,349.2,318.6Z" transform="translate(-16 -10.92)" style="fill:#fff"/><path d="M339.6,338.2c0-1.74-1.61-3.49-.4-5.2.14.13.27.36.4.36s.27-.23.4-.36c1.5,2.22,5.15,3.15,5,6,0,.45-1.11,1.37-.21,2-1.81,1.35-1.87,3.72-2.8,5.6a16.92,16.92,0,0,1-3.6-1.2c.35-1.49.24-3.17,1.06-4.49C339.89,340.21,339.6,339.13,339.6,338.2Z" transform="translate(-16 -10.92)" style="fill:#fff"/><path d="M173.4,329.2s-16.86,10.14-2.8-5.2a85.22,85.22,0,0,1,18.8-15.2s10.4-4.4,14-5.6,18.8-6.4,22-6.8,12.8-4.4,19.6-.4,14.8,8.4,14.8,8.4-16.4-8.4-20-6-10.8,2-16.8,5.2c0,0-14.8,4.4-18,6.4s-13.6,13.6-15.2,12.8.4-1.2,1.6-4-.8-4.4-8.8,2S173.4,329.2,173.4,329.2Z" transform="translate(-16 -10.92)" style="fill:#ccc"/><path d="M180.81,323.23s1.41-13,9.88-11.37c0,0,8.23-4.17,10.95-6.14,0,0,8.14-1.7,9.45-2.32,18.48-8.7,33.2-4.18,33.74-5.3s20.18,6,23.78,10.08c.4.45-10.23-5.59-19.92-7.48-8.28-1.62-29.88.24-40.78,5.78-3,1.51-11.92,7.29-14.45,7.18S180.81,323.23,180.81,323.23Z" transform="translate(-16 -10.92)"/><path d="M177,348.8s-15.2-2.4,1.6-4c0,0,18-2,22-7.2,0,0,13.6-9.2,16.4-9.6s32.8-7.6,33.2-10,6-2.4,7.6-1.6.8,2-2,2.8-34,17.2-40.4,18.4-18,8.8-22.8,10S177,348.8,177,348.8Z" transform="translate(-16 -10.92)" style="fill:#ccc"/><path d="M196.52,341.4s-8.58-.83,0-1.64c0,0,8.82-3.43,10.86-6.09,0,0,7-4.71,8.4-4.92s15.39-3.89,15.6-5.12,34.27-13.81,38.69-10.62c2.91,2.1-7,.43-16.62,4.84-1.36.62-35.21,15.2-38.49,15.82s-9.22,4.5-11.67,5.12A52.59,52.59,0,0,0,196.52,341.4Z" transform="translate(-16 -10.92)"/><path d="M188.6,343.6s5.2-.4,4,1.2-3.6.8-3.6.8Z" transform="translate(-16 -10.92)"/><path d="M181.4,345.2s5.2-.4,4,1.2-3.6.8-3.6.8Z" transform="translate(-16 -10.92)"/><path d="M171,346.8s5.2-.4,4,1.2-3.6.8-3.6.8Z" transform="translate(-16 -10.92)"/><path d="M163.4,347.6s5.2-.4,4,1.2-3.6.8-3.6.8Z" transform="translate(-16 -10.92)"/><path d="M201.8,308s4.4,0,3.2,1.6-4.4,1.2-4.4,1.2Z" transform="translate(-16 -10.92)"/><path d="M191.8,313.6s6.51-2.14,4,1.2c-1.2,1.6-3.6.8-3.6.8Z" transform="translate(-16 -10.92)"/><path d="M180.6,318.4s5.2-.4,4,1.2-3.6.8-3.6.8Z" transform="translate(-16 -10.92)"/><path d="M173,324.4s5.2-.4,4,1.2-3.6.8-3.6.8Z" transform="translate(-16 -10.92)"/><path d="M166.2,329.2s5.2-.4,4,1.2-3.6.8-3.6.8Z" transform="translate(-16 -10.92)"/><path d="M205.28,335.6s6.92-.53,5.33,1.6-4.8,1.06-4.8,1.06Z" transform="translate(-16 -10.92)"/><path d="M215.68,330.8s6.92-.53,5.33,1.6-4.8,1.06-4.8,1.06Z" transform="translate(-16 -10.92)"/><path d="M226.48,326.4s6.92-.53,5.33,1.6-4.8,1.06-4.8,1.06Z" transform="translate(-16 -10.92)"/><path d="M236.88,321.6s6.92-.53,5.33,1.59-4.8,1.07-4.8,1.07Z" transform="translate(-16 -10.92)"/><path d="M209.28,303.6s6.92-.53,5.33,1.59-5.6,1.87-5.6,1.87Z" transform="translate(-16 -10.92)"/><path d="M219.28,300.4s6.92-.53,5.33,1.6-6,1.86-6,1.86Z" transform="translate(-16 -10.92)"/><path d="M196.6,340.4s5.2-.4,4,1.2-3.6.8-3.6.8Z" transform="translate(-16 -10.92)"/><path d="M123.4,241.2s-4.4,8.8-4.8,12c0,0,.8-8.8,2-10.8S123.4,241.2,123.4,241.2Z" transform="translate(-16 -10.92)" style="fill:#992600"/><path d="M105,255.2s-3.2,14.4-2.8,17.2c0,0-1.2-11.6-.8-12.8S105,255.2,105,255.2Z" transform="translate(-16 -10.92)" style="fill:#992600"/><path d="M125.8,180.6l-.2,3.2-2.2.2s14.2,12.6,14.8,20.2C138.2,204.2,139,196,125.8,180.6Z" transform="translate(-16 -10.92)" style="fill:#ccc"/><path d="M129.78,181.86c-.43-.41-.21-1.16-.62-1.42-.8-.51,1.3-.57,1.07-1.28a8,8,0,0,1-.31-2.51,5.42,5.42,0,0,1,.91-2.58c1.45-1.65.12-4.58,1.76-6.13a8.86,8.86,0,0,0,1-1.26c.66-1,1.84-1.45,2.79-2.28.32-.27.12-1.1.69-1s2,0,1.91.83c-.12,2.12-1.44,3.84-2.72,5.5.45.71,0,1.34-.3,1.9-1.33,2.62-1.14,5.46-1.32,8.3,0,.09-.31.16-.3.22a30.48,30.48,0,0,0,1.82,6.76,14.64,14.64,0,0,1,1,2.75,3.33,3.33,0,0,1-.19,2.23c2,2.89.73,5.54,1.89,9.07.21.62,1.9,2.54,1.44,2.38-2.51-.88-2.62-1.27-2.8-2s-.48-2-.71-2.6c-.07-.16-.24-2-.32-2.17-1.51-2.38-.15-2.2-1.52-4.56a12.5,12.5,0,0,1-3.52-2.95c-.2-.2,1-.93.76-1.14-1.09-1.29-2.24-2.06-1.9-3.55A2.55,2.55,0,0,0,129.78,181.86Z" transform="translate(-16 -10.92)"/><path d="M126.2,183.6s.4,6.8,2.8,8.4,1.2.8-2-.4-2-2-2-2-2.8.4-.4,2.4,6,4.4,4.4,4.4-9.2-4-9.2-6.8a36.85,36.85,0,0,0-1-6.9s1.1-.8,5.9-.7C124.7,182,126.1,182.7,126.2,183.6Z" transform="translate(-16 -10.92)"/><path d="M125.4,202.2s-8.52-2.79-27,.6c0,0,9-2.08,27.8.2C136.5,204.25,125.4,202.2,125.4,202.2Z" transform="translate(-16 -10.92)" style="fill:#fff;stroke:#000;stroke-width:0.10000000149011612px"/><path d="M127.5,202.13s-8.25-3.52-26.95-1.74c0,0,9.17-1.29,27.68,2.6C138.38,205.13,127.5,202.13,127.5,202.13Z" transform="translate(-16 -10.92)" style="fill:#fff;stroke:#000;stroke-width:0.10000000149011612px"/><path d="M129.29,202.22s-8-4.12-26.75-3.73c0,0,9.25-.61,27.41,4.65C139.91,206,129.29,202.22,129.29,202.22Z" transform="translate(-16 -10.92)" style="fill:#fff;stroke:#000;stroke-width:0.10000000149011612px"/><path d="M130.56,202.44s-6.83-4.3-23.7-5.4c0,0,8.34.17,24.22,6.28C139.79,206.67,130.56,202.44,130.56,202.44Z" transform="translate(-16 -10.92)" style="fill:#fff;stroke:#000;stroke-width:0.10000000149011612px"/><path d="M245.84,213s-.93.64-.72-.54,28.43-14.35,32-14.1C277.16,198.32,246.91,211.53,245.84,213Z" transform="translate(-16 -10.92)" style="fill:#fff;stroke:#000;stroke-width:0.10000000149011612px"/><path d="M242.45,213.6s-.88.71-.76-.48,27.21-16.54,30.83-16.57C272.52,196.55,243.4,212.09,242.45,213.6Z" transform="translate(-16 -10.92)" style="fill:#fff;stroke:#000;stroke-width:0.10000000149011612px"/><path d="M239.16,215s-.83.77-.79-.43S258.23,197.85,268,196C268,196,250,204.1,239.16,215Z" transform="translate(-16 -10.92)" style="fill:#fff;stroke:#000;stroke-width:0.10000000149011612px"/><path d="M236.28,216.84s-.74.69-.7-.39,17.87-15,26.7-16.71C262.28,199.74,246.05,207.05,236.28,216.84Z" transform="translate(-16 -10.92)" style="fill:#fff;stroke:#000;stroke-width:0.10000000149011612px"/><path d="M204.6,364.8s-15.2-2.4,1.6-4c0,0,18-2,22-7.2,0,0,13.6-9.2,16.4-9.6s19.2-4,19.6-6.4,6.4-4.8,8-4,1.6,10-1.2,10.8-21.6,8-28,9.2-18,8.8-22.8,10S204.6,364.8,204.6,364.8Z" transform="translate(-16 -10.92)" style="fill:#ccc"/><path d="M277.6,327.4a10.74,10.74,0,0,0-4.2,4.2,33.85,33.85,0,0,1-20.6,13.8s-23,9-30.8,11c0,0-13.4,5-20.8,4.2,0,0-7,.2-.8,1.8,0,0,20.2-2,23.6-3.8,0,0,15.6-5.2,18.6-7.8s21.2-7.6,23.4-9.6S278,330.8,277.6,327.4Z" transform="translate(-16 -10.92)"/><path d="M218.88,358.91s5.23-.23,4.08,1.32-3.6.68-3.6.68Z" transform="translate(-16 -10.92)"/><path d="M211.68,360.26s5.23-.22,4.08,1.33-3.61.67-3.61.67Z" transform="translate(-16 -10.92)"/><path d="M201.25,361.51s5.23-.23,4.08,1.32-3.6.68-3.6.68Z" transform="translate(-16 -10.92)"/><path d="M193.62,362.05s5.23-.22,4.07,1.33-3.6.67-3.6.67Z" transform="translate(-16 -10.92)"/><path d="M235.42,351.51s7-.3,5.42,1.76-4.79.9-4.79.9Z" transform="translate(-16 -10.92)"/><path d="M245.73,347.09s6-3.3,5.42,1.76c-.27,2.55-4.79.9-4.79.9Z" transform="translate(-16 -10.92)"/><path d="M254.86,344.27s7.16-3.7,5.43,1.77c-.78,2.45-4.8.89-4.8.89Z" transform="translate(-16 -10.92)"/><path d="M264.38,339.45s4.36-4.9,5.42,1.76c.41,2.54-4.79.9-4.79.9Z" transform="translate(-16 -10.92)"/><path d="M226.83,356s5.23-.23,4.08,1.32-3.6.68-3.6.68Z" transform="translate(-16 -10.92)"/><path d="M262.43,234.6s-.72.67-.72-.4,17.48-14.34,26.32-15.72C288,218.48,271.93,225.21,262.43,234.6Z" transform="translate(-16 -10.92)" style="fill:#fff;stroke:#000;stroke-width:0.10000000149011612px"/><path d="M265.4,298.4s22,22.4,31.2,26c0,0,9.2,11.2,5.2,37.2,0,0-3.2,7.6-6.4-13.2,0,0,3.2-25.2-8-9.2,0,0-8.4-9.9-2-9.6,0,0,3.2,2,3.6.4s-7.6-15.2-24.8-29.6S265.4,298.4,265.4,298.4Z" transform="translate(-16 -10.92)"/><path d="M207,337.2s-.2-1.8,1.6-1,96,7,127.6,31C336.2,367.2,291,344,207,337.2Z" transform="translate(-16 -10.92)" style="fill:#fff;stroke:#000;stroke-width:0.10000000149011612px"/><path d="M217.4,332.8s-.2-1.8,1.6-1,138.4-.2,162,32.2C381,364,359,338.8,217.4,332.8Z" transform="translate(-16 -10.92)" style="fill:#fff;stroke:#000;stroke-width:0.10000000149011612px"/><path d="M229,328.8s-.2-1.8,1.6-1S405.8,315.6,429.4,348C429.4,348,419.8,322.4,229,328.8Z" transform="translate(-16 -10.92)" style="fill:#fff;stroke:#000;stroke-width:0.10000000149011612px"/><path d="M239,324s-.2-1.8,1.6-1,124-37.8,147.6-5.4C388.2,317.6,374.8,293,239,324Z" transform="translate(-16 -10.92)" style="fill:#fff;stroke:#000;stroke-width:0.10000000149011612px"/><path d="M181,346.8s-.2-1.8,1.6-1,19.6,3,21.6,41.8C204.2,387.6,197,345.6,181,346.8Z" transform="translate(-16 -10.92)" style="fill:#fff;stroke:#000;stroke-width:0.10000000149011612px"/><path d="M172.2,348.4s-.2-1.8,1.6-1,16-3.8,13.2,35C187,382.4,188.2,347.2,172.2,348.4Z" transform="translate(-16 -10.92)" style="fill:#fff;stroke:#000;stroke-width:0.10000000149011612px"/><path d="M164.2,348.8s-.2-1.8,1.6-1,17.2,1.4,4.8,23.8C170.6,371.6,180.2,347.6,164.2,348.8Z" transform="translate(-16 -10.92)" style="fill:#fff;stroke:#000;stroke-width:0.10000000149011612px"/><path d="M211.53,304.46s-.45,2,1.1.79c16.07-12.63,48.51-71.53,104.2-77.16C316.83,228.09,278.52,216,211.53,304.46Z" transform="translate(-16 -10.92)" style="fill:#fff;stroke:#000;stroke-width:0.10000000149011612px"/><path d="M222.73,302.67s-1.37-1.2.5-1.82,114.31-73.13,153.6-65.16C376.83,235.69,349.72,228.18,222.73,302.67Z" transform="translate(-16 -10.92)" style="fill:#fff;stroke:#000;stroke-width:0.10000000149011612px"/><path d="M201.88,308.77s-.5,1.6,1.21.62c9-5.12,12.59-62.33,56.16-63.59C259.25,245.8,226.84,231.09,201.88,308.77Z" transform="translate(-16 -10.92)" style="fill:#fff;stroke:#000;stroke-width:0.10000000149011612px"/><path d="M182,319.79s-1.07,1.29.88,1c10.24-1.33,31.65-42.6,76.09-37.52C258.93,283.3,227,269,182,319.79Z" transform="translate(-16 -10.92)" style="fill:#fff;stroke:#000;stroke-width:0.10000000149011612px"/><path d="M193.2,313.67s-.81,1.47,1.06.84c9.8-3.27,22.88-47.88,67.47-51.43C261.73,263.08,227.6,255.13,193.2,313.67Z" transform="translate(-16 -10.92)" style="fill:#fff;stroke:#000;stroke-width:0.10000000149011612px"/><path d="M174.92,324.91s-.87,1,.71.84c8.3-1.08,25.64-34.51,61.63-30.4C237.26,295.35,211.37,283.73,174.92,324.91Z" transform="translate(-16 -10.92)" style="fill:#fff;stroke:#000;stroke-width:0.10000000149011612px"/><path d="M167.32,330.82s-1,1.05.59.93c4.17-.31,34.8-33.39,53.27-17.89C221.18,313.86,209.17,295.14,167.32,330.82Z" transform="translate(-16 -10.92)" style="fill:#fff;stroke:#000;stroke-width:0.10000000149011612px"/><path d="M236.85,298.9s-1.2-1.36.74-1.74,122.63-58.1,160.59-45.23C398.18,251.93,372.24,241.05,236.85,298.9Z" transform="translate(-16 -10.92)" style="fill:#fff;stroke:#000;stroke-width:0.10000000149011612px"/><path d="M203.4,363.2s-.2-1.8,1.6-1,17.2,1.4,4.8,23.8C209.8,386,219.4,362,203.4,363.2Z" transform="translate(-16 -10.92)" style="fill:#fff;stroke:#000;stroke-width:0.10000000149011612px"/><path d="M213.8,361.6s-.2-1.8,1.6-1,19.6,3,21.6,41.8C237,402.4,229.8,360.4,213.8,361.6Z" transform="translate(-16 -10.92)" style="fill:#fff;stroke:#000;stroke-width:0.10000000149011612px"/><path d="M220.6,360s-.2-1.8,1.6-1,26.4,4.2,50,36.6C272.2,395.6,236.6,358.8,220.6,360Z" transform="translate(-16 -10.92)" style="fill:#fff;stroke:#000;stroke-width:0.10000000149011612px"/><path d="M228.23,358s-.44-1.76,1.45-1.2S252,355.42,290.1,389.6C290.1,389.6,243.92,354.66,228.23,358Z" transform="translate(-16 -10.92)" style="fill:#fff;stroke:#000;stroke-width:0.10000000149011612px"/><path d="M238.63,353.57s-.44-1.76,1.45-1.2,36.72,5.05,88.42,40C328.5,392.4,254.32,350.26,238.63,353.57Z" transform="translate(-16 -10.92)" style="fill:#fff;stroke:#000;stroke-width:0.10000000149011612px"/><path d="M198.2,342s-.2-1.8,1.6-1,55.2,3.4,85.6,30.2C285.4,371.2,250.5,346.43,198.2,342Z" transform="translate(-16 -10.92)" style="fill:#fff;stroke:#000;stroke-width:0.10000000149011612px"/><path d="M188.2,346s-.2-1.8,1.6-1,26.4,4.2,50,36.6C239.8,381.6,204.2,344.8,188.2,346Z" transform="translate(-16 -10.92)" style="fill:#fff;stroke:#000;stroke-width:0.10000000149011612px"/><path d="M249.5,349s-.56-1.72,1.36-1.31,37,2.35,91.12,33.45C342,381.1,264.32,346.7,249.5,349Z" transform="translate(-16 -10.92)" style="fill:#fff;stroke:#000;stroke-width:0.10000000149011612px"/><path d="M257.9,346.56s-.56-1.72,1.36-1.3,37,2.34,91.12,33.44C350.38,378.7,273.32,343.9,257.9,346.56Z" transform="translate(-16 -10.92)" style="fill:#fff;stroke:#000;stroke-width:0.10000000149011612px"/><path d="M267.5,341.56s-.56-1.72,1.36-1.3,45,4.74,134.72,39C403.58,379.3,282.92,338.9,267.5,341.56Z" transform="translate(-16 -10.92)" style="fill:#fff;stroke:#000;stroke-width:0.10000000149011612px"/><path d="M156.2,348.4s5.2-.4,4,1.2-3.6.8-3.6.8Z" transform="translate(-16 -10.92)"/><path d="M187,362.4s5.2-.4,4,1.2-3.6.8-3.6.8Z" transform="translate(-16 -10.92)"/><path d="M178.2,362s5.2-.4,4,1.2-3.6.8-3.6.8Z" transform="translate(-16 -10.92)"/><path d="M82.83,350.18s5,1.33,3.39,2.44-3.67-.42-3.67-.42Z" transform="translate(-16 -10.92)"/><path d="M84.83,340.58s5,1.32,3.39,2.44-3.67-.42-3.67-.42Z" transform="translate(-16 -10.92)"/><path d="M77.63,336.18s5.05,1.33,3.39,2.44-3.67-.42-3.67-.42Z" transform="translate(-16 -10.92)"/><path d="M157.4,411.2s-1.6,0-5.6,2c-2,0-13.2,3.6-18.8,13.6C133,426.8,145.4,417.2,157.4,411.2Z" transform="translate(-16 -10.92)" style="fill:#ccc"/><path d="M245.12,503.85c.14.26.19.67.48.69.66,0,1.89.34,1.77-.29-.85-4.31-1.72-9.25-5.86-11.05-.63-.28-2.08.13-2.15,1a14.65,14.65,0,0,0,.06,4.34c.3,1.43,2.46,1.43,3.38.05C243.74,500.27,244.17,502.12,245.12,503.85Z" transform="translate(-16 -10.92)" style="fill:#ccc"/><path d="M234,508.58c.75,1.41.62,3.27,2,3.84.74.29,2.59-.69,2.18-1.76-.81-2.06-1.19-4.3-2.58-6.11-.2-.26,0-.79-.12-1.12a2.73,2.73,0,0,0-3.15-1.63c-1.12,2.2,0,4.33,1.56,6C234.09,508,233.92,508.37,234,508.58Z" transform="translate(-16 -10.92)" style="fill:#ccc"/><path d="M194.44,503.39a1.71,1.71,0,0,1,0-1.16c.54-1,1.33-2.15,1-3.18s-1.46-.87-2.11-.3c-1.14,1-1.19,2.82-1.88,4.18-.19.38-.14,1-.58,1.35a4,4,0,0,0-.82,2.51c0,.32-.13,10.22.09,10,.62-.73,3.67-10.47,3.74-11.36C193.94,504.66,194.67,504.2,194.44,503.39Z" transform="translate(-16 -10.92)" style="fill:#ccc"/><path d="M168.8,496.6c2.63-2.5,5.42-5.46,5-9.17-.12-1-1.89-.45-2.08.39a16.56,16.56,0,0,1-5.41,8.68c-2.19,2.05-4,8.39-4.29,8.9A76.44,76.44,0,0,1,168.8,496.6Z" transform="translate(-16 -10.92)" style="fill:#ccc"/><path d="M155.22,490.64c.53-.37.22-.87.44-1.2,1-1.46,2.26-2.7,2.27-4.44a.46.46,0,0,0-.71-.36,5.05,5.05,0,0,0-.72.44,42.46,42.46,0,0,0-4.88,7.93c-.18.36-1.32,4.85-1,5s2-4.09,2.17-4.21C154,493.08,154.05,491.46,155.22,490.64Z" transform="translate(-16 -10.92)" style="fill:#ccc"/><path d="M172,510.18c.44-.87,2-2.07,1.9-3s.35-2.37-.56-1.68c-1.25.94-4.7,2.29-5,8.1C168.3,514.21,171.27,511.52,172,510.18Z" transform="translate(-16 -10.92)" style="fill:#ccc"/><path d="M186.4,493c.4-.67,1.11-.19,1.57-.46a3.74,3.74,0,0,0,1.55-1.58c1-2.14,2.74-4,2.88-6.36-1.49-1.4-2.17.64-2.8,1.6-1.32-1.65-2.32.23-3.62.75-.07,0-.29-.32-.36-.3-1.18.45-1.86,1.53-2.86,2.31-.17.13-.57,0-.72.09-.65.6-1.62.93-1.9,1.61-1.11,2.7-4.25,4.8-6.14,12.34.38.91,4.51-6.64,5-7.34.83-1.2.95,1.66,2.23,1,.05,0,.24.21.37.34.19-.28.41-.51.8-.4,0-.4-.13-1,.07-1.11,1.23-1,1.15-2.05,1.93-3.29C184.86,493,185.92,492.27,186.4,493Z" transform="translate(-16 -10.92)" style="fill:#ccc"/><path d="M246.2,547.4s7.4-20.4,3-31.6c0,0,11.4,21.6,6.8,32.8,0,0-.4-10.4-4.4-15.4C251.6,533.2,247.6,546,246.2,547.4Z" transform="translate(-16 -10.92)" style="fill:#ccc"/><path d="M231.4,544.8s5.4-8.8-2.6-27.2c0,0-.8,20.4-7.6,31.4C221.2,549,235.4,528.8,231.4,544.8Z" transform="translate(-16 -10.92)" style="fill:#ccc"/><path d="M221.4,542.8s-.2-20,.2-23c0,0-3.8,16.6-14,26.2C207.6,546,222,534,221.4,542.8Z" transform="translate(-16 -10.92)" style="fill:#ccc"/><path d="M211.8,510.8s6,13.6-4,32c0,0,6.4-12.2,1.6-19.2C209.4,523.6,212,520.2,211.8,510.8Z" transform="translate(-16 -10.92)" style="fill:#ccc"/><path d="M192.6,542.4s-1-15.6.8-17.8c0,0,.2-6.4-.2-7.4,0,0,4-6.2,4.2,1.2,0,0,1.4,7.8,4.2,12.4a22.53,22.53,0,0,1,3.4,11.8S195,512.4,192.6,542.4Z" transform="translate(-16 -10.92)" style="fill:#ccc"/><path d="M189,514.8s-6.6,10.8-8.4,29.8c0,0-1.4-6.2,2.4-20.6C183,524,187.2,508.6,189,514.8Z" transform="translate(-16 -10.92)" style="fill:#ccc"/><path d="M167.2,534.6s5-5.4,6.4-10.4c0,0,3.6-15.8-2.8-7.2,0,0,.2,8-8,15.4C162.8,532.4,167.6,530,167.2,534.6Z" transform="translate(-16 -10.92)" style="fill:#ccc"/><path d="M161.4,529.6s3.4-17.4,4.2-18.2c0,0,1.8-3.4-1-.2,0,0-8.8,19.2-12.8,25.8C151.8,537,159.8,527.8,161.4,529.6Z" transform="translate(-16 -10.92)" style="fill:#ccc"/><path d="M155.6,513s11.6-22.4-10.2,3.4C145.4,516.4,156.4,506.6,155.6,513Z" transform="translate(-16 -10.92)" style="fill:#ccc"/><path d="M140.2,498.4s4.8-18.8,7.4-18.6c0,0,8.2-9,1.6,1.6,0,0-6,9.6-5.4,19.4C143.8,500.8,143.2,491.2,140.2,498.4Z" transform="translate(-16 -10.92)" style="fill:#ccc"/><path d="M470.5,487s-12-10-14.5-13.5c0,0,13.5,18.5,13.5,25.5C469.5,499,472,491.5,470.5,487Z" transform="translate(-16 -10.92)" style="fill:#ccc"/><path d="M476,465s-21-15-24.5-22.5c0,0,26.5,29.5,26.5,34C478,476.5,478.5,467.5,476,465Z" transform="translate(-16 -10.92)" style="fill:#ccc"/><path d="M493,311s-12-8-13.5-6c0,0,10.5,6.5,13,15C492.5,320,491,311,493,311Z" transform="translate(-16 -10.92)" style="fill:#ccc"/><path d="M501.5,391.5l-17.5-12s19,17,19.5,21Z" transform="translate(-16 -10.92)" style="fill:#ccc"/><path d="M110.75,369l22,4.75" transform="translate(-16 -10.92)" style="fill:none;stroke:#000"/><path d="M161,531s-.5-3.5-9.5,7" transform="translate(-16 -10.92)" style="fill:none;stroke:#000"/><path d="M166.5,536s2-6.5-4.5-2" transform="translate(-16 -10.92)" style="fill:none;stroke:#000"/><path d="M220.5,544.5s1.5-11-10,2" transform="translate(-16 -10.92)" style="fill:none;stroke:#000"/><rect x="1.63" width="155.37" height="169.88" style="fill:#51599e;opacity:0.2"/></svg>