<svg id="art" xmlns="http://www.w3.org/2000/svg" viewBox="0 0 384 55.67">

  <style>

    #art {
    }

  </style>

  <g id="head">
    <path d="M318.46,55.67c23.82,0,36.51-51,60.73-51H384V0H214.84c-24.22,0-36.9,51-60.73,51H0v4.7" style="fill: #ee3423;opacity: 0.6"/>
    <path d="M321,55.67c23.82,0,36.51-51,60.73-51H384V3H365.34c-24.22,0-34.9,51-58.73,51H0v1.7" style="fill: #ee3423;opacity: 0.8"/>
    <g>
      <path d="M250.15,48a.72.72,0,0,1-.12.42.88.88,0,0,1-.44.28,4.36,4.36,0,0,1-.85.17,13.21,13.21,0,0,1-1.4.06,12.32,12.32,0,0,1-1.35-.06,4.65,4.65,0,0,1-.86-.17,1,1,0,0,1-.46-.28.66.66,0,0,1-.13-.42V40.52h-21V48a.66.66,0,0,1-.14.42,1,1,0,0,1-.46.28,4.61,4.61,0,0,1-.87.17,12.73,12.73,0,0,1-1.37.06,12.52,12.52,0,0,1-1.36-.06,4.61,4.61,0,0,1-.87-.17.87.87,0,0,1-.45-.28.72.72,0,0,1-.12-.42V36.61a1,1,0,0,1,1.17-1.32h1.46q.59-.82,1.11-1.71a15.54,15.54,0,0,0,1-2.08q.48-1.21,1-2.88c.32-1.12.63-2.48.94-4.09s.62-3.52.94-5.73.65-4.8,1-7.78A3.13,3.13,0,0,1,227,9.43a1.54,1.54,0,0,1,1.27-.5h16.14a1.75,1.75,0,0,1,1.34.5,2.07,2.07,0,0,1,.49,1.52V35.29H249a1.07,1.07,0,0,1,.92.36,1.58,1.58,0,0,1,.27,1ZM239.87,14.1H232.5c-.29,2.48-.58,4.65-.87,6.53s-.57,3.53-.85,4.95-.57,2.63-.87,3.66A27.45,27.45,0,0,1,229,31.9a12.89,12.89,0,0,1-.94,1.93,15.5,15.5,0,0,1-1,1.46h12.79Z" style="fill: #fff"/>
      <path d="M278.06,39.66a.68.68,0,0,1-.15.45,1,1,0,0,1-.52.31,5.13,5.13,0,0,1-1,.18c-.42,0-1,.06-1.63.06s-1.27,0-1.7-.06a4.63,4.63,0,0,1-1-.19,1.24,1.24,0,0,1-.58-.37,1.54,1.54,0,0,1-.3-.57l-2.54-7a15.26,15.26,0,0,0-1.12-2.58,6.76,6.76,0,0,0-1.29-1.68,4,4,0,0,0-1.61-.92,7.12,7.12,0,0,0-2-.27h-1.44V39.64a.68.68,0,0,1-.15.45,1.15,1.15,0,0,1-.51.32,4,4,0,0,1-1,.19q-.6.06-1.56.06c-.62,0-1.13,0-1.55-.06a4.24,4.24,0,0,1-1-.19,1.26,1.26,0,0,1-.52-.32.64.64,0,0,1-.16-.45V9.78a.64.64,0,0,1,.16-.45,1.15,1.15,0,0,1,.52-.31,4.92,4.92,0,0,1,1-.18c.42,0,.93-.06,1.55-.06s1.16,0,1.56.06a4.67,4.67,0,0,1,1,.18,1.06,1.06,0,0,1,.51.31.68.68,0,0,1,.15.45V21.65h1.44a5.71,5.71,0,0,0,1.93-.3,4.09,4.09,0,0,0,1.5-.93,6.55,6.55,0,0,0,1.22-1.64,16.2,16.2,0,0,0,1.06-2.51L270.37,10a2.41,2.41,0,0,1,.29-.58,1.15,1.15,0,0,1,.55-.36,4.17,4.17,0,0,1,1-.2c.41,0,1-.06,1.67-.06s1.16,0,1.58.06a5.25,5.25,0,0,1,1,.17.84.84,0,0,1,.48.29.85.85,0,0,1,.12.46,3.15,3.15,0,0,1-.11.78,11.75,11.75,0,0,1-.38,1.22l-2.12,5.61A22.46,22.46,0,0,1,273.25,20,9.94,9.94,0,0,1,272,21.9a6.92,6.92,0,0,1-1.36,1.26,7.48,7.48,0,0,1-1.6.8v0a11.35,11.35,0,0,1,1.77.94,7.35,7.35,0,0,1,1.49,1.33,11.94,11.94,0,0,1,1.33,2,25.61,25.61,0,0,1,1.29,2.88l2.59,6.54A8.77,8.77,0,0,1,278,39,3.38,3.38,0,0,1,278.06,39.66Z" style="fill: #fff"/>
      <path d="M308.53,39.69a.65.65,0,0,1-.16.42,1.11,1.11,0,0,1-.53.31,4.65,4.65,0,0,1-1,.18c-.41,0-.93.06-1.55.06s-1.13,0-1.55-.06a4.43,4.43,0,0,1-1-.18,1,1,0,0,1-.5-.31.64.64,0,0,1-.15-.42V23c0-.64,0-1.26,0-1.87s0-1.15.08-1.62h-.05l-.47.79c-.17.3-.37.62-.57.95s-.42.68-.65,1-.45.68-.68,1l-11,16.38a3.18,3.18,0,0,1-.4.47,1.41,1.41,0,0,1-.54.3,3.81,3.81,0,0,1-.8.15q-.48,0-1.23,0c-.64,0-1.15,0-1.54-.06a4,4,0,0,1-.92-.18.75.75,0,0,1-.57-.78V9.76a.6.6,0,0,1,.16-.43,1.14,1.14,0,0,1,.53-.31,5.2,5.2,0,0,1,1-.18c.41,0,.92-.06,1.54-.06s1.16,0,1.56.06a4.67,4.67,0,0,1,1,.18,1.11,1.11,0,0,1,.51.31.64.64,0,0,1,.15.43V26.5c0,.52,0,1.08,0,1.66s0,1.16-.07,1.71h.05c.28-.49.63-1.07,1.05-1.76s.86-1.35,1.32-2l11-16.38a4,4,0,0,1,.37-.43,1.57,1.57,0,0,1,.53-.3,3.28,3.28,0,0,1,.81-.17c.33,0,.74-.05,1.25-.05a15,15,0,0,1,1.5.06,4.26,4.26,0,0,1,.92.18,1,1,0,0,1,.47.31.73.73,0,0,1,.14.45Z" style="fill: #fff"/>
    </g>
    <path d="M0,0V50.66L154.11,51c23.83,0,36.51-51,60.73-51Z" style="fill: #424242;opacity: 0.8"/>
    <text style="font-size: 16px;fill: #fff;font-family: Calibri, Calibri"><tspan x="9" y="43.33">инфрастуктуры</tspan></text>
    <text style="font-size: 16px;fill: #fff;font-family: Calibri, Calibri"><tspan x="9" y="29.33">комплекс</tspan></text>
    <text transform="translate(9 15.33)" style="font-size: 16px;fill: #fff;font-family: Calibri, Calibri">Диагностический</text>
    <rect width="384" height="55.67" style="fill: #424242;opacity: 0"/>
  </g>
</svg>
